<svg version="1.1" id="Layer_1" xmlns="http://www.w3.org/2000/svg" xmlns:xlink="http://www.w3.org/1999/xlink" x="0px" y="0px"
	 width="100%" viewBox="0 0 150 150" enable-background="new 0 0 150 150" xml:space="preserve">
<path fill="#030202" opacity="1.000000" stroke="none" 
	d="
M151.000000,51.000000 
	C151.000000,84.666664 151.000000,117.833336 151.000000,151.000000 
	C101.000000,151.000000 51.000000,151.000000 1.000000,151.000000 
	C1.000000,101.000000 1.000000,51.000000 1.000000,1.000000 
	C51.000000,1.000000 101.000000,1.000000 151.000000,1.000000 
	C151.000000,17.500000 151.000000,34.000000 151.000000,51.000000 
M18.085741,85.060333 
	C18.085741,85.060333 18.041876,85.090767 17.465219,85.125320 
	C17.369741,85.751053 17.274263,86.376778 17.133804,87.697029 
	C17.052526,88.153008 16.971249,88.608986 16.447126,89.509842 
	C16.605534,90.654457 16.763943,91.799072 17.086380,93.519516 
	C17.139299,93.914108 17.192217,94.308708 17.254883,95.203491 
	C17.357323,95.540810 17.564543,95.791527 18.061743,96.348129 
	C18.061743,96.348129 18.130943,96.776573 18.282492,97.287140 
	C18.573343,97.472015 18.864195,97.656891 19.207373,97.807938 
	C19.207373,97.807938 19.269588,97.804466 19.155207,98.493294 
	C19.418539,100.226036 19.681870,101.958778 19.896490,103.892113 
	C19.896490,103.892113 19.691544,103.867500 18.949661,103.955566 
	C18.349859,105.397659 17.750059,106.839752 17.174791,109.117188 
	C17.870890,112.250092 17.492420,116.733002 19.445078,118.287270 
	C28.999037,125.891998 39.174244,132.716248 48.998215,139.722549 
	C50.339111,135.773483 51.528309,132.271194 52.909645,129.860260 
	C52.980305,133.475830 53.123722,137.091934 53.098160,140.706818 
	C53.078403,143.500137 54.157036,145.106140 57.882290,145.267487 
	C82.502563,145.267487 107.122841,145.267487 130.874496,145.267487 
	C131.321732,140.080109 131.710938,135.565643 132.540207,130.684662 
	C132.290710,130.103195 132.041199,129.521713 131.744354,128.882294 
	C131.744354,128.882294 131.720047,128.811539 131.662018,128.087448 
	C131.078110,127.727554 130.494186,127.367668 130.323975,126.487305 
	C131.354553,125.521286 135.316879,125.958679 131.773102,122.222687 
	C131.862274,117.829353 131.951447,113.436012 132.549545,108.590225 
	C130.328827,104.733322 129.738113,99.111465 122.938721,99.463615 
	C122.622437,99.358887 122.306160,99.254158 121.451454,98.901543 
	C120.983429,98.551231 120.515404,98.200920 119.901146,97.173889 
	C118.835358,96.509743 117.769577,95.845604 116.341248,95.065445 
	C116.341248,95.065445 116.063461,94.805191 115.912971,94.172203 
	C114.978516,93.756393 114.044052,93.340584 113.034737,92.971863 
	C113.034737,92.971863 113.052063,92.885139 112.802498,92.444870 
	C112.494904,92.332878 112.187309,92.220886 111.982742,92.026306 
	C111.982742,92.026306 111.911865,92.137718 111.695908,91.491760 
	C110.729950,91.070297 109.763985,90.648827 108.928398,89.992218 
	C108.928398,89.992218 108.784645,90.223877 108.790413,89.478271 
	C107.343025,88.790558 105.895638,88.102844 104.164505,87.373413 
	C104.164505,87.373413 103.963165,87.169159 103.724854,86.504509 
	C100.164330,82.736122 96.100220,80.789261 90.606842,80.888130 
	C73.615753,81.193939 56.615639,80.974815 39.619217,81.023956 
	C34.964645,81.037415 29.795994,79.671738 26.223364,84.803780 
	C23.901812,82.692589 21.567232,80.713875 18.377520,84.284332 
	C18.182405,84.485771 18.083138,84.726753 18.085741,85.060333 
M24.448364,19.143570 
	C23.982553,19.144199 23.516745,19.144827 22.531633,18.574642 
	C18.826967,19.445913 14.981503,19.960875 11.479405,21.344767 
	C9.827216,21.997652 8.883053,24.306694 12.608904,24.915596 
	C12.608904,24.915596 12.973717,25.072828 13.154112,25.781145 
	C20.436367,27.526850 27.718622,29.272552 35.582386,31.018921 
	C36.106583,31.246284 36.630775,31.473646 36.998890,32.496593 
	C36.636742,33.220417 36.014641,33.923710 35.955597,34.671467 
	C35.628651,38.812160 32.350403,43.060272 36.575779,47.662956 
	C37.111908,48.314476 37.648037,48.965996 38.039276,50.333363 
	C37.660969,51.446613 37.282661,52.559860 36.822266,53.821823 
	C36.822266,53.821823 36.676281,53.908661 36.126232,54.103706 
	C35.623074,56.489983 33.416939,59.055698 37.395744,61.472004 
	C60.247608,73.387016 83.506416,74.176003 107.327568,64.407227 
	C112.318169,62.360641 114.962524,59.579308 113.926514,53.347782 
	C113.630699,51.965782 113.334892,50.583782 113.568687,48.533611 
	C113.675323,44.403698 113.781960,40.273781 113.966301,35.334862 
	C113.995323,33.981483 114.024345,32.628105 114.695602,31.140606 
	C115.130653,31.094992 115.565704,31.049377 116.782471,31.046078 
	C118.524559,30.701073 120.266647,30.356068 122.729500,29.918985 
	C124.819923,28.608692 126.910339,27.298399 129.441940,25.779657 
	C129.727509,25.594212 129.920456,25.338785 130.643219,24.884104 
	C131.063889,24.834085 131.484558,24.784065 132.748322,25.018108 
	C134.680893,24.283945 136.613480,23.549782 138.734070,22.317341 
	C137.129379,21.951553 135.524704,21.585764 133.173477,21.157362 
	C131.956696,20.900478 130.739929,20.643595 129.352066,20.004974 
	C129.352066,20.004974 129.114090,19.658033 128.639084,19.134676 
	C125.095528,18.409273 121.551971,17.683870 117.351906,16.949507 
	C116.930473,16.836960 116.509041,16.724413 115.850395,15.968734 
	C115.306961,15.625760 114.806694,15.136782 114.213692,14.961463 
	C103.344971,11.748118 92.477654,8.527881 81.567680,5.459685 
	C80.514435,5.163480 79.182060,5.859820 77.150871,6.063908 
	C75.768547,6.043684 74.386215,6.023460 72.882553,5.365362 
	C72.538864,5.066589 72.101501,4.447003 71.865189,4.516005 
	C66.084183,6.204000 60.323807,7.962746 54.561356,9.714149 
	C51.025475,10.788822 47.492275,11.872335 43.112419,12.979138 
	C39.207886,12.826333 35.523312,13.272426 32.318653,16.928625 
	C31.884033,16.970078 31.449415,17.011530 30.564388,16.541357 
	C28.697891,17.338312 26.831392,18.135267 25.066545,19.111015 
	C25.066545,19.111015 25.128202,19.307226 24.448364,19.143570 
M131.749741,67.787155 
	C131.577240,70.715317 131.283127,73.642365 131.256531,76.571854 
	C131.193375,83.525421 131.727417,83.920525 139.828323,82.882439 
	C141.912552,76.499153 142.058807,70.206100 138.626694,63.590645 
	C138.077896,63.446453 137.529099,63.302261 136.840134,62.555878 
	C136.233597,62.720917 135.627060,62.885956 134.486420,63.121571 
	C134.322433,63.194744 134.158432,63.267921 133.272842,63.251518 
	C132.867447,64.508873 132.462051,65.766228 131.749741,67.787155 
M140.788040,53.014668 
	C138.694641,51.901562 136.448456,49.743980 134.558350,50.020485 
	C133.157959,50.225342 131.025299,53.868645 131.394836,55.481728 
	C131.809250,57.290703 134.673233,58.538525 136.471405,60.030506 
	C137.955383,57.945427 139.439346,55.860352 140.788040,53.014668 
z"/>
<path fill="#0360D3" opacity="1.000000" stroke="none" 
	d="
M129.523148,20.386711 
	C130.739929,20.643595 131.956696,20.900478 133.552902,21.387205 
	C133.932327,21.617048 134.097672,21.978674 133.809036,22.094463 
	C132.982010,23.051517 132.443619,23.892782 131.905228,24.734045 
	C131.484558,24.784065 131.063889,24.834085 130.117554,24.844391 
	C129.591888,24.804676 129.116379,24.835999 129.165558,24.752712 
	C129.214722,24.669428 129.175888,24.479931 128.972504,24.169762 
	C125.111626,23.667183 121.454140,23.474777 117.355995,23.262766 
	C113.950974,23.146467 110.986610,23.049774 107.724747,22.777477 
	C106.280769,22.545219 105.134315,22.488567 103.588043,22.297857 
	C101.789719,22.112089 100.391220,22.060377 98.781403,21.836113 
	C98.047646,21.704842 97.525215,21.746122 96.583084,21.608006 
	C93.110954,21.283804 90.058517,21.139002 86.691605,20.811203 
	C84.924774,20.633308 83.472412,20.638411 81.647362,20.455788 
	C80.182602,20.190140 79.090538,20.112215 77.636612,19.986710 
	C76.611885,20.540392 75.949020,21.141657 75.286148,21.742922 
	C76.073853,22.467112 76.783813,23.685398 77.663681,23.823839 
	C80.421173,24.257711 83.242699,24.284613 86.396698,24.602745 
	C87.513535,24.753586 88.273087,24.770857 89.262985,24.881056 
	C89.493324,24.973984 89.984154,24.897451 90.418198,24.972416 
	C94.879204,25.378141 98.906166,25.708900 103.133614,26.192158 
	C103.980156,26.268543 104.626213,26.192429 105.622040,26.241730 
	C107.981873,26.575729 109.991943,26.784309 111.998535,27.206930 
	C111.995041,27.420969 112.108986,27.833664 111.884781,28.124275 
	C108.913429,29.507401 106.238213,30.863581 103.403984,31.636980 
	C97.684219,33.197777 91.916847,34.646610 86.094894,35.750114 
	C81.634392,36.595570 76.785683,38.069271 72.585258,37.132004 
	C57.108257,33.678524 41.834900,29.315760 26.466103,25.368370 
	C25.052818,25.005375 23.505531,25.164112 21.706596,25.032608 
	C20.575865,25.215385 19.759007,25.446140 18.609577,25.631603 
	C17.848385,25.459412 17.419764,25.332514 17.014511,24.912998 
	C17.038864,24.425125 17.039843,24.229870 17.245804,23.911098 
	C17.703178,23.574146 17.870808,23.307432 18.166332,22.744720 
	C19.213587,21.904718 20.048183,21.307432 21.115765,20.547995 
	C21.898081,20.260836 22.447411,20.135830 23.157001,20.215298 
	C23.920910,20.048923 24.524557,19.678076 25.128202,19.307226 
	C25.128202,19.307226 25.066545,19.111015 25.350475,19.089001 
	C26.089533,19.059465 26.544662,19.051943 27.232162,19.266216 
	C29.961748,18.624922 32.458965,17.761831 34.975136,16.944998 
	C34.994091,16.991255 34.929459,16.914972 35.328346,16.965992 
	C37.822456,16.308226 39.917679,15.599443 42.280739,14.814079 
	C43.028999,14.481563 43.509418,14.225627 44.320786,14.011335 
	C45.095875,14.030287 45.540009,14.007592 46.220573,14.233862 
	C48.911205,13.622699 51.365414,12.762570 54.099655,11.723782 
	C55.247013,11.376514 56.114338,11.207909 57.146255,11.230116 
	C57.918324,11.099973 58.525806,10.779015 59.429321,10.343845 
	C60.139572,10.148067 60.553787,10.066500 61.336639,10.013971 
	C62.794876,9.669037 63.884476,9.295061 65.178177,8.734034 
	C65.917007,8.434354 66.451729,8.321726 67.276596,8.420131 
	C71.052383,8.082396 74.538025,7.533629 78.387177,6.998280 
	C79.455894,7.173641 80.161102,7.335585 81.004440,7.776550 
	C81.899071,8.243038 82.655571,8.430507 83.811356,8.647167 
	C86.289429,9.124328 88.384384,9.508631 90.444191,10.031378 
	C98.997772,12.202136 107.540741,14.414668 116.087608,16.611868 
	C116.509041,16.724413 116.930473,16.836960 117.942665,17.200094 
	C121.686028,18.303793 124.838638,19.156906 128.200668,20.212711 
	C128.781113,20.405842 129.152130,20.396276 129.523148,20.386711 
z"/>
<path fill="#EEE5E5" opacity="1.000000" stroke="none" 
	d="
M132.100159,131.051193 
	C131.710938,135.565643 131.321732,140.080109 130.874496,145.267487 
	C107.122841,145.267487 82.502563,145.267487 57.405281,144.797119 
	C56.402225,140.584381 55.343941,136.812912 55.546463,133.110413 
	C55.671227,130.829498 57.620537,128.458771 60.848991,130.694717 
	C60.645130,134.791214 61.483017,136.454865 65.606392,134.378693 
	C67.270256,133.540924 69.974640,133.551392 71.700378,134.315964 
	C74.991089,135.773880 76.266251,135.380981 76.105103,131.634003 
	C76.067757,130.765732 76.689621,129.869125 77.329361,129.091949 
	C78.510078,129.101959 79.369591,129.005585 80.574547,129.088867 
	C81.920113,129.128418 82.920250,128.988327 84.361610,129.024185 
	C98.230080,129.083084 111.657318,128.966049 125.451172,129.053375 
	C127.176231,129.111771 128.534668,128.965805 130.188324,128.938416 
	C130.895706,128.975189 131.307877,128.893356 131.720047,128.811539 
	C131.720047,128.811539 131.744354,128.882294 131.765228,129.271973 
	C131.890793,130.124832 131.995468,130.588013 132.100159,131.051193 
z"/>
<path fill="#44ED45" opacity="1.000000" stroke="none" 
	d="
M120.047371,97.850616 
	C120.515404,98.200920 120.983429,98.551231 121.659836,99.335373 
	C120.917427,100.520302 119.966637,101.271393 118.676407,102.026443 
	C117.884644,102.022057 117.432327,102.013695 116.675697,101.723740 
	C115.731667,101.301575 115.092155,101.039276 114.452194,101.038200 
	C97.716019,101.010033 80.979729,100.991020 64.243713,101.045326 
	C63.178883,101.048782 62.116020,101.657608 60.800781,102.145386 
	C60.302868,102.616089 60.056416,102.926224 59.527020,103.178894 
	C58.873112,103.025589 58.502148,102.929749 57.907745,102.596428 
	C53.416672,99.109741 49.149040,95.860542 44.780075,92.270058 
	C44.065639,91.669594 43.452538,91.410416 42.877266,91.174606 
	C42.915100,91.197983 42.829285,91.221359 42.826241,90.853943 
	C41.835865,90.032494 40.848530,89.578468 39.925423,89.086929 
	C39.989651,89.049416 39.886425,89.156532 39.863407,88.796860 
	C38.860943,87.980263 37.881493,87.523338 36.943825,87.046326 
	C36.985603,87.026237 36.936852,87.105103 36.927116,86.747902 
	C36.261585,82.424919 39.366947,84.075119 40.808769,84.064514 
	C59.633236,83.926033 78.458794,83.936012 97.605400,84.001266 
	C99.938866,85.118965 101.951019,86.144058 103.963165,87.169159 
	C103.963165,87.169159 104.164505,87.373413 104.490959,87.668213 
	C106.139824,88.716629 107.462234,89.470253 108.784645,90.223877 
	C108.784645,90.223877 108.928398,89.992218 108.998833,90.397552 
	C110.016800,91.247826 110.964333,91.692772 111.911865,92.137718 
	C111.911865,92.137718 111.982742,92.026306 112.043594,92.297760 
	C112.420311,92.674522 112.736191,92.779831 113.052063,92.885139 
	C113.052063,92.885139 113.034737,92.971863 113.201721,93.227638 
	C114.266953,93.924004 115.165207,94.364601 116.063461,94.805191 
	C116.063461,94.805191 116.341248,95.065445 116.681427,95.418121 
	C118.030197,96.464073 119.038780,97.157349 120.047371,97.850616 
z"/>
<path fill="#E4EFEE" opacity="1.000000" stroke="none" 
	d="
M132.040619,109.042679 
	C131.951447,113.436012 131.862274,117.829353 131.602371,122.884842 
	C114.090904,123.647392 96.750153,123.779205 79.409492,123.767776 
	C78.401894,123.767113 77.395073,122.605034 76.502060,121.570358 
	C76.461662,118.915451 76.307091,116.673630 76.160210,114.543289 
	C70.801384,114.543289 65.981049,114.543289 60.977844,114.543289 
	C60.977844,117.692307 60.977844,120.311859 60.791718,123.204651 
	C57.841179,126.674362 56.750710,123.211197 55.171600,121.641701 
	C55.180103,120.202644 55.011288,119.208984 55.010723,118.215233 
	C55.005653,109.297188 56.571510,108.494652 63.678810,108.595512 
	C80.327850,108.831779 96.982910,108.614189 113.635323,108.657898 
	C119.770714,108.674004 125.905540,108.908043 132.040619,109.042679 
z"/>
<path fill="#5B6699" opacity="1.000000" stroke="none" 
	d="
M38.184166,49.617516 
	C37.648037,48.965996 37.111908,48.314476 36.597961,46.925892 
	C36.620140,42.914711 36.620140,39.640591 36.620140,35.738201 
	C38.837601,36.121689 40.266506,36.267410 41.641109,36.623047 
	C50.308819,38.865551 59.040569,40.905769 67.595711,43.521278 
	C72.765427,45.101784 77.604301,45.051872 82.724251,43.577221 
	C89.084198,41.745415 95.564835,40.332592 101.995346,39.213043 
	C102.054344,44.216900 102.111328,48.746513 101.892921,53.506500 
	C95.655098,55.130623 89.759308,57.049603 83.717300,57.816299 
	C67.754822,59.841846 52.618549,56.486713 38.184166,49.617516 
z"/>
<path fill="#3B466D" opacity="1.000000" stroke="none" 
	d="
M113.958267,54.063660 
	C114.962524,59.579308 112.318169,62.360641 107.327568,64.407227 
	C83.506416,74.176003 60.247608,73.387016 37.130367,60.805176 
	C36.802086,58.061787 36.739185,55.985222 36.676281,53.908661 
	C36.676281,53.908661 36.822266,53.821823 37.238613,53.855103 
	C39.052223,54.425323 40.461945,54.932125 41.844891,55.503708 
	C64.341194,64.801529 86.798492,64.824883 109.248360,55.308506 
	C110.728294,54.681168 112.384209,54.468960 113.958267,54.063660 
z"/>
<path fill="#EBA60D" opacity="1.000000" stroke="none" 
	d="
M52.717510,128.768890 
	C51.528309,132.271194 50.339111,135.773483 48.998215,139.722549 
	C39.174244,132.716248 28.999037,125.891998 19.445078,118.287270 
	C17.492420,116.733002 17.870890,112.250092 17.404303,108.478729 
	C18.319723,106.516014 19.005634,105.191757 19.691544,103.867500 
	C19.691544,103.867500 19.896490,103.892113 20.284370,103.857315 
	C28.141706,108.828087 35.611164,113.833672 43.078278,118.887245 
	C43.075932,118.935234 43.170689,118.919289 43.303963,119.181000 
	C43.950806,119.713058 44.464378,119.983421 45.075809,120.440933 
	C45.388279,120.840004 45.645977,120.934784 46.158058,121.162506 
	C47.448494,122.069092 48.527634,122.725594 49.657349,123.260101 
	C49.707920,123.138107 49.655750,123.397026 49.790070,123.664627 
	C50.591606,124.316498 51.258823,124.700768 51.895477,125.084915 
	C51.864910,125.084793 51.861618,125.145828 51.993622,125.360321 
	C52.428043,125.701759 52.730457,125.828705 53.021294,125.968895 
	C53.009716,125.982140 53.042397,125.963242 53.030869,126.248596 
	C52.918736,127.278931 52.818123,128.023911 52.717510,128.768890 
z"/>
<path fill="#0D390E" opacity="1.000000" stroke="none" 
	d="
M45.946762,120.912430 
	C45.645977,120.934784 45.388279,120.840004 44.962326,120.158470 
	C44.224216,119.432335 43.697453,119.175812 43.170689,118.919289 
	C43.170689,118.919289 43.075932,118.935234 43.067451,118.527756 
	C41.037663,115.745720 39.016354,113.371162 37.316978,111.074173 
	C38.663483,111.535545 39.688049,111.919350 40.868881,112.490021 
	C41.270069,112.904320 41.556316,113.051239 42.064774,113.334702 
	C42.755318,113.784653 43.264977,114.017540 43.973351,114.532211 
	C45.857578,115.906044 47.543087,116.998077 50.136078,118.678070 
	C50.136078,115.021782 50.136078,112.568871 50.377136,109.993576 
	C51.060116,109.563934 51.502037,109.256691 52.024719,109.267883 
	C55.380325,111.303169 54.804340,108.710510 55.004440,106.995972 
	C54.999706,107.000267 54.990421,107.009201 55.366966,107.026657 
	C58.788902,107.064423 59.962589,106.061378 57.897957,103.142380 
	C57.975441,103.039368 58.131180,102.833916 58.131180,102.833908 
	C58.502148,102.929749 58.873112,103.025589 59.897335,103.392975 
	C69.006828,103.723457 77.462982,103.810280 85.919319,103.834518 
	C97.531036,103.867798 109.143463,103.905289 120.753777,103.776894 
	C121.866905,103.764580 122.967216,102.592468 123.983078,101.688736 
	C123.657448,100.926964 123.422211,100.435219 123.186974,99.943481 
	C129.738113,99.111465 130.328827,104.733322 132.295074,108.816452 
	C125.905540,108.908043 119.770714,108.674004 113.635323,108.657898 
	C96.982910,108.614189 80.327850,108.831779 63.678810,108.595512 
	C56.571510,108.494652 55.005653,109.297188 55.010723,118.215233 
	C55.011288,119.208984 55.180103,120.202644 54.869820,121.401527 
	C53.701233,118.944336 52.933720,116.281952 52.292652,114.058212 
	C50.821785,115.999458 49.324619,117.975403 47.553810,119.980408 
	C46.835697,120.310455 46.391232,120.611443 45.946762,120.912430 
z"/>
<path fill="#050C24" opacity="1.000000" stroke="none" 
	d="
M101.993340,38.738808 
	C95.564835,40.332592 89.084198,41.745415 82.724251,43.577221 
	C77.604301,45.051872 72.765427,45.101784 67.595711,43.521278 
	C59.040569,40.905769 50.308819,38.865551 41.641109,36.623047 
	C40.266506,36.267410 38.837601,36.121689 36.620140,35.738201 
	C36.620140,39.640591 36.620140,42.914711 36.460350,46.632977 
	C32.350403,43.060272 35.628651,38.812160 35.955597,34.671467 
	C36.014641,33.923710 36.636742,33.220417 37.480141,32.112053 
	C44.217632,33.282787 50.453346,34.927315 56.735004,36.372078 
	C65.779434,38.452278 74.511223,43.050793 84.273880,39.047955 
	C89.140022,37.052765 94.315163,35.752945 99.425812,34.429226 
	C104.250351,33.179615 109.173561,32.310955 114.053368,31.274725 
	C114.024345,32.628105 113.995323,33.981483 113.526581,35.659580 
	C109.389023,36.902470 105.691185,37.820641 101.993340,38.738808 
z"/>
<path fill="#080B1A" opacity="1.000000" stroke="none" 
	d="
M113.942390,53.705723 
	C112.384209,54.468960 110.728294,54.681168 109.248360,55.308506 
	C86.798492,64.824883 64.341194,64.801529 41.844891,55.503708 
	C40.461945,54.932125 39.052223,54.425323 37.279655,53.780746 
	C37.282661,52.559860 37.660969,51.446613 38.111721,49.975441 
	C52.618549,56.486713 67.754822,59.841846 83.717300,57.816299 
	C89.759308,57.049603 95.655098,55.130623 102.255066,53.447250 
	C106.274765,51.839008 109.656914,50.520393 113.039078,49.201782 
	C113.334892,50.583782 113.630699,51.965782 113.942390,53.705723 
z"/>
<path fill="#0849AA" opacity="1.000000" stroke="none" 
	d="
M114.374481,31.207664 
	C109.173561,32.310955 104.250351,33.179615 99.425812,34.429226 
	C94.315163,35.752945 89.140022,37.052765 84.273880,39.047955 
	C74.511223,43.050793 65.779434,38.452278 56.735004,36.372078 
	C50.453346,34.927315 44.217632,33.282787 37.558182,31.714260 
	C36.630775,31.473646 36.106583,31.246284 35.169273,30.820875 
	C34.513676,30.429012 34.265556,30.242702 33.785553,29.771566 
	C31.873549,29.033869 30.187786,28.588505 28.414061,28.230244 
	C28.326097,28.317350 28.098845,28.219088 27.874371,27.932508 
	C25.773420,26.790813 23.896944,25.935699 22.020468,25.080585 
	C23.505531,25.164112 25.052818,25.005375 26.466103,25.368370 
	C41.834900,29.315760 57.108257,33.678524 72.585258,37.132004 
	C76.785683,38.069271 81.634392,36.595570 86.094894,35.750114 
	C91.916847,34.646610 97.684219,33.197777 103.403984,31.636980 
	C106.238213,30.863581 108.913429,29.507401 112.304169,28.154064 
	C114.632423,27.890461 116.317093,27.887684 118.214127,27.940126 
	C118.426498,27.995348 118.858116,28.074776 118.745491,28.351843 
	C117.755493,29.420527 116.878128,30.212145 116.000755,31.003761 
	C115.565704,31.049377 115.130653,31.094992 114.374481,31.207664 
z"/>
<path fill="#0D390E" opacity="1.000000" stroke="none" 
	d="
M103.844009,86.836838 
	C101.951019,86.144058 99.938866,85.118965 97.361000,83.669662 
	C94.721443,82.856613 92.649475,82.142151 90.573479,82.130264 
	C73.440910,82.032196 56.307579,82.064240 39.174480,82.057259 
	C36.584736,82.056198 33.994991,82.057106 31.405247,82.057106 
	C31.288147,82.417252 31.171047,82.777405 31.053947,83.137550 
	C33.014915,84.460068 34.975883,85.782585 36.936852,87.105103 
	C36.936852,87.105103 36.985603,87.026237 37.097160,87.318817 
	C38.101284,88.126450 38.993855,88.641495 39.886425,89.156532 
	C39.886425,89.156532 39.989651,89.049416 40.061150,89.371262 
	C41.031525,90.202522 41.930405,90.711937 42.829285,91.221359 
	C42.829285,91.221359 42.915100,91.197983 43.020042,91.471252 
	C43.710461,92.033455 44.295933,92.322395 44.881405,92.611336 
	C49.149040,95.860542 53.416672,99.109741 57.907745,102.596436 
	C58.131180,102.833916 57.975441,103.039368 57.560677,103.122192 
	C56.427418,104.473076 55.708920,105.741135 54.990421,107.009201 
	C54.990421,107.009201 54.999706,107.000267 54.694641,106.940857 
	C54.190685,106.814781 53.991802,106.748116 53.793236,106.351372 
	C52.974613,105.255714 52.155674,104.490135 51.298111,103.714081 
	C51.259491,103.703598 51.182648,103.731880 51.149609,103.463043 
	C50.790173,103.077873 50.463779,102.961548 50.159355,102.832169 
	C50.181328,102.819122 50.176334,102.768265 50.100952,102.450607 
	C48.027794,100.748322 46.030014,99.363686 44.018772,97.988342 
	C44.005310,97.997635 44.018429,97.968323 43.857735,97.720291 
	C43.151596,97.272797 42.606155,97.073341 42.037918,96.910248 
	C42.015125,96.946617 42.099110,96.928833 42.011497,96.675186 
	C41.619514,96.242752 41.315147,96.063957 40.832645,95.661880 
	C40.160133,95.154663 39.665752,94.870728 38.993877,94.376358 
	C38.313019,94.008240 37.809650,93.850555 37.280556,93.684204 
	C37.254829,93.675537 37.242180,93.622742 37.163864,93.340782 
	C36.427872,92.657448 35.770195,92.256073 35.061291,91.866791 
	C35.010059,91.878891 35.114479,91.891235 34.958199,91.611954 
	C34.237190,91.041840 33.672462,90.751007 33.093414,90.353386 
	C33.079090,90.246590 32.921780,90.099297 32.799820,89.792931 
	C31.522884,88.919136 30.367910,88.351707 29.178144,87.786423 
	C29.143353,87.788567 29.174650,87.850861 29.110474,87.544716 
	C28.370083,86.805840 27.693869,86.373108 27.019272,85.963257 
	C27.020889,85.986145 27.060251,85.957352 27.005955,85.743408 
	C26.951656,85.529465 26.839306,85.102562 26.839306,85.102562 
	C29.795994,79.671738 34.964645,81.037415 39.619217,81.023956 
	C56.615639,80.974815 73.615753,81.193939 90.606842,80.888130 
	C96.100220,80.789261 100.164330,82.736122 103.844009,86.836838 
z"/>
<path fill="#48517E" opacity="1.000000" stroke="none" 
	d="
M113.303879,48.867695 
	C109.656914,50.520393 106.274765,51.839008 102.530457,53.216877 
	C102.111328,48.746513 102.054344,44.216900 101.995346,39.213043 
	C105.691185,37.820641 109.389023,36.902470 113.487732,36.064083 
	C113.781960,40.273781 113.675323,44.403698 113.303879,48.867695 
z"/>
<path fill="#050C24" opacity="1.000000" stroke="none" 
	d="
M118.858116,28.074776 
	C118.858116,28.074776 118.426498,27.995348 118.117905,27.596066 
	C115.873550,27.128820 113.937790,27.060856 112.002022,26.992889 
	C109.991943,26.784309 107.981873,26.575729 105.231430,26.197145 
	C103.971764,26.031315 103.452446,26.035488 102.933136,26.039661 
	C98.906166,25.708900 94.879204,25.378141 90.335274,24.835459 
	C89.515564,24.409473 89.253677,24.464338 89.032646,24.788128 
	C88.273087,24.770857 87.513535,24.753586 86.396347,24.301777 
	C86.361168,22.909561 86.683624,21.951880 87.006081,20.994200 
	C90.058517,21.139002 93.110954,21.283804 96.675537,21.814178 
	C97.789368,22.136055 98.391037,22.072359 98.992714,22.008663 
	C100.391220,22.060377 101.789719,22.112089 103.694778,22.591099 
	C105.474968,22.996626 106.748611,22.974855 108.022255,22.953083 
	C110.986610,23.049774 113.950974,23.146467 117.697067,23.473091 
	C122.044502,23.961992 125.610199,24.220961 129.175888,24.479931 
	C129.175888,24.479931 129.214722,24.669428 129.127502,25.040274 
	C129.027115,25.603449 129.013931,25.795778 129.000763,25.988106 
	C126.910339,27.298399 124.819923,28.608692 122.363373,29.625204 
	C120.950867,28.912540 119.904488,28.493658 118.858116,28.074776 
z"/>
<path fill="#ED8147" opacity="1.000000" stroke="none" 
	d="
M133.994431,63.341103 
	C134.158432,63.267921 134.322433,63.194744 134.877884,63.313477 
	C135.839661,63.389614 136.409988,63.273842 136.980301,63.158066 
	C137.529099,63.302261 138.077896,63.446453 138.774796,64.239197 
	C138.950150,70.900070 138.977386,76.912399 139.004639,82.924721 
	C131.727417,83.920525 131.193375,83.525421 131.256531,76.571854 
	C131.283127,73.642365 131.577240,70.715317 132.142319,67.215042 
	C133.021408,65.542313 133.507919,64.441711 133.994431,63.341103 
z"/>
<path fill="#163A16" opacity="1.000000" stroke="none" 
	d="
M76.387894,121.983444 
	C77.395073,122.605034 78.401894,123.767113 79.409492,123.767776 
	C96.750153,123.779205 114.090904,123.647392 131.730331,123.236221 
	C135.316879,125.958679 131.354553,125.521286 130.103516,127.200470 
	C129.886398,128.215714 129.889755,128.517776 129.893112,128.819839 
	C128.534668,128.965805 127.176231,129.111771 125.417122,128.573578 
	C123.840591,127.245979 122.671547,126.058449 121.487816,126.043610 
	C110.176765,125.901939 98.861557,125.870377 87.552826,126.085213 
	C86.324951,126.108543 85.130394,127.884972 83.920380,128.848236 
	C82.920250,128.988327 81.920113,129.128418 80.540825,128.616211 
	C80.125191,127.650536 80.088707,127.337166 79.852020,126.754944 
	C78.097656,125.593826 76.543495,124.701553 75.026047,123.560616 
	C75.504478,122.869110 75.946182,122.426285 76.387894,121.983444 
z"/>
<path fill="#1F1C02" opacity="1.000000" stroke="none" 
	d="
M36.995049,110.996597 
	C39.016354,113.371162 41.037663,115.745720 43.069794,118.479767 
	C35.611164,113.833672 28.141706,108.828087 20.308727,103.757019 
	C19.681870,101.958778 19.418539,100.226036 19.503824,98.218155 
	C20.430651,98.100212 21.008860,98.257416 21.612450,98.415199 
	C21.637829,98.415779 21.688313,98.414963 21.779434,98.729965 
	C26.588606,102.758789 31.306652,106.472610 36.134285,110.380096 
	C36.445633,110.810944 36.700272,110.954147 37.003998,111.002487 
	C37.000214,111.001625 36.995052,110.996597 36.995049,110.996597 
z"/>
<path fill="#DF9D11" opacity="1.000000" stroke="none" 
	d="
M140.855682,53.394974 
	C139.439346,55.860352 137.955383,57.945427 136.471405,60.030506 
	C134.673233,58.538525 131.809250,57.290703 131.394836,55.481728 
	C131.025299,53.868645 133.157959,50.225342 134.558350,50.020485 
	C136.448456,49.743980 138.694641,51.901562 140.855682,53.394974 
z"/>
<path fill="#001037" opacity="1.000000" stroke="none" 
	d="
M115.969002,16.290300 
	C107.540741,14.414668 98.997772,12.202136 90.444191,10.031378 
	C88.384384,9.508631 86.289429,9.124328 83.611435,8.434734 
	C82.296928,7.961249 81.581619,7.729389 80.866310,7.497529 
	C80.161102,7.335585 79.455894,7.173641 78.367233,6.776343 
	C77.983772,6.540989 77.979256,6.095410 77.979256,6.095410 
	C79.182060,5.859820 80.514435,5.163480 81.567680,5.459685 
	C92.477654,8.527881 103.344971,11.748118 114.213692,14.961463 
	C114.806694,15.136782 115.306961,15.625760 115.969002,16.290300 
z"/>
<path fill="#482A16" opacity="1.000000" stroke="none" 
	d="
M52.813576,129.314575 
	C52.818123,128.023911 52.918736,127.278931 53.372742,126.315323 
	C56.128658,126.803436 58.531178,127.510178 60.944916,128.561157 
	C60.927883,129.362930 60.899624,129.820450 60.871365,130.277969 
	C57.620537,128.458771 55.671227,130.829498 55.546463,133.110413 
	C55.343941,136.812912 56.402225,140.584381 57.016148,144.716873 
	C54.157036,145.106140 53.078403,143.500137 53.098160,140.706818 
	C53.123722,137.091934 52.980305,133.475830 52.813576,129.314575 
z"/>
<path fill="#001037" opacity="1.000000" stroke="none" 
	d="
M66.986450,8.209099 
	C66.451729,8.321726 65.917007,8.434354 64.816879,8.731403 
	C63.156975,9.272195 62.062489,9.628564 60.967999,9.984932 
	C60.553787,10.066500 60.139572,10.148067 59.134727,10.260729 
	C58.023285,10.540983 57.502476,10.790143 56.981667,11.039303 
	C56.114338,11.207909 55.247013,11.376514 53.717796,11.716656 
	C50.698658,12.587092 48.341400,13.285995 45.984146,13.984898 
	C45.540009,14.007592 45.095875,14.030287 44.312756,13.756909 
	C43.968475,13.291185 43.963173,13.121532 43.957874,12.951880 
	C47.492275,11.872335 51.025475,10.788822 54.561356,9.714149 
	C60.323807,7.962746 66.084183,6.204000 71.865189,4.516005 
	C72.101501,4.447003 72.538864,5.066589 72.688705,5.927077 
	C70.658730,7.062228 68.822586,7.635664 66.986450,8.209099 
z"/>
<path fill="#050C24" opacity="1.000000" stroke="none" 
	d="
M28.098845,28.219088 
	C28.098845,28.219088 28.326097,28.317350 28.695171,28.489243 
	C30.713428,29.128723 32.362614,29.596312 34.011799,30.063900 
	C34.265556,30.242702 34.513676,30.429012 34.878517,30.820543 
	C27.718622,29.272552 20.436367,27.526850 13.367939,25.384239 
	C14.718225,25.060095 15.854683,25.132856 16.991140,25.205616 
	C17.419764,25.332514 17.848385,25.459412 18.842651,25.853790 
	C22.305145,26.820545 25.201996,27.519815 28.098845,28.219088 
z"/>
<path fill="#050C24" opacity="1.000000" stroke="none" 
	d="
M22.996738,20.010822 
	C22.447411,20.135830 21.898081,20.260836 20.714146,20.563259 
	C17.306734,21.830038 13.191546,20.363298 12.214123,24.871342 
	C8.883053,24.306694 9.827216,21.997652 11.479405,21.344767 
	C14.981503,19.960875 18.826967,19.445913 22.776140,19.076176 
	C23.020647,19.577711 22.996738,20.010822 22.996738,20.010822 
z"/>
<path fill="#C6622B" opacity="1.000000" stroke="none" 
	d="
M139.416473,82.903580 
	C138.977386,76.912399 138.950150,70.900070 138.937531,64.476128 
	C142.058807,70.206100 141.912552,76.499153 139.416473,82.903580 
z"/>
<path fill="#3CB83C" opacity="1.000000" stroke="none" 
	d="
M26.531334,84.953171 
	C26.839306,85.102562 26.951656,85.529465 26.637415,85.757370 
	C24.704803,85.432381 23.086435,84.879494 21.161802,84.221977 
	C19.845308,86.527893 18.581921,88.740791 17.227886,90.642929 
	C17.054819,89.909760 16.972395,89.487366 16.889973,89.064964 
	C16.971249,88.608986 17.052526,88.153008 17.378597,87.183441 
	C17.762888,86.143494 17.902384,85.617126 18.041878,85.090767 
	C18.041876,85.090767 18.085741,85.060333 18.261620,84.934433 
	C18.657387,84.607849 18.747747,84.359955 18.708580,84.064842 
	C21.567232,80.713875 23.901812,82.692589 26.531334,84.953171 
z"/>
<path fill="#050C24" opacity="1.000000" stroke="none" 
	d="
M43.535149,12.965509 
	C43.963173,13.121532 43.968475,13.291185 43.981804,13.715263 
	C43.509418,14.225627 43.028999,14.481563 42.019196,14.691219 
	C39.303028,15.401617 37.116241,16.158295 34.929459,16.914974 
	C34.929459,16.914972 34.994091,16.991255 34.640114,16.900536 
	C33.837223,16.778341 33.388309,16.746864 32.939400,16.715387 
	C35.523312,13.272426 39.207886,12.826333 43.535149,12.965509 
z"/>
<path fill="#001037" opacity="1.000000" stroke="none" 
	d="
M127.991241,20.010017 
	C124.838638,19.156906 121.686028,18.303793 118.270920,17.204575 
	C121.551971,17.683870 125.095528,18.409273 128.596893,19.488522 
	C128.366898,19.898252 128.179062,19.954134 127.991241,20.010017 
z"/>
<path fill="#1050A3" opacity="1.000000" stroke="none" 
	d="
M12.411513,24.893469 
	C13.191546,20.363298 17.306734,21.830038 20.481159,20.725412 
	C20.048183,21.307432 19.213587,21.904718 17.892006,22.748367 
	C16.927481,23.161564 16.449944,23.328398 15.972404,23.495232 
	C16.328543,23.675026 16.684681,23.854822 17.040819,24.034616 
	C17.039843,24.229870 17.038864,24.425125 17.014511,24.912998 
	C15.854683,25.132856 14.718225,25.060095 13.277742,25.030081 
	C12.973717,25.072828 12.608904,24.915596 12.411513,24.893469 
z"/>
<path fill="#1050A3" opacity="1.000000" stroke="none" 
	d="
M67.276596,8.420132 
	C68.822586,7.635664 70.658730,7.062228 72.749374,6.246014 
	C74.386215,6.023460 75.768547,6.043684 77.565063,6.079659 
	C77.979256,6.095410 77.983772,6.540989 78.003716,6.762925 
	C74.538025,7.533629 71.052383,8.082396 67.276596,8.420132 
z"/>
<path fill="#0E4389" opacity="1.000000" stroke="none" 
	d="
M132.326782,24.876076 
	C132.443619,23.892782 132.982010,23.051517 134.182922,22.076309 
	C136.078964,22.233450 137.312515,22.524536 138.546051,22.815620 
	C136.613480,23.549782 134.680893,24.283945 132.326782,24.876076 
z"/>
<path fill="#010D31" opacity="1.000000" stroke="none" 
	d="
M118.745491,28.351843 
	C119.904488,28.493658 120.950867,28.912540 122.002991,29.671242 
	C120.266647,30.356068 118.524559,30.701073 116.391617,31.024920 
	C116.878128,30.212145 117.755493,29.420527 118.745491,28.351843 
z"/>
<path fill="#3CB83C" opacity="1.000000" stroke="none" 
	d="
M21.587070,98.414619 
	C21.008860,98.257416 20.430651,98.100212 19.561016,97.873734 
	C19.269588,97.804466 19.207373,97.807938 19.092836,97.581512 
	C18.695847,97.162247 18.413395,96.969414 18.130943,96.776573 
	C18.130943,96.776573 18.061743,96.348129 17.963926,95.902649 
	C17.659119,95.205879 17.452127,94.954590 17.245136,94.703300 
	C17.192217,94.308708 17.139299,93.914108 17.122936,93.270447 
	C17.159491,93.021370 17.402552,93.076569 17.719618,93.121948 
	C19.220146,94.916420 20.403608,96.665520 21.587070,98.414619 
z"/>
<path fill="#080B1A" opacity="1.000000" stroke="none" 
	d="
M36.401257,54.006184 
	C36.739185,55.985222 36.802086,58.061787 36.860336,60.582489 
	C33.416939,59.055698 35.623074,56.489983 36.401257,54.006184 
z"/>
<path fill="#050C24" opacity="1.000000" stroke="none" 
	d="
M26.999790,19.044420 
	C26.544662,19.051943 26.089533,19.059465 25.299648,18.999605 
	C26.831392,18.135267 28.697891,17.338312 30.553810,17.026049 
	C29.362083,18.021967 28.180937,18.533194 26.999790,19.044420 
z"/>
<path fill="#1050A3" opacity="1.000000" stroke="none" 
	d="
M27.232162,19.266216 
	C28.180937,18.533194 29.362083,18.021967 30.779013,17.281860 
	C31.449415,17.011530 31.884033,16.970078 32.629028,16.822006 
	C33.388309,16.746864 33.837223,16.778341 34.621155,16.854279 
	C32.458965,17.761831 29.961748,18.624922 27.232162,19.266216 
z"/>
<path fill="#39EA38" opacity="1.000000" stroke="none" 
	d="
M123.062851,99.703552 
	C123.422211,100.435219 123.657448,100.926964 123.754433,101.922073 
	C122.082741,102.291130 120.549301,102.156815 119.015854,102.022491 
	C119.966637,101.271393 120.917427,100.520302 121.929047,99.459320 
	C122.306160,99.254158 122.622437,99.358887 123.062851,99.703552 
z"/>
<path fill="#001037" opacity="1.000000" stroke="none" 
	d="
M138.640060,22.566483 
	C137.312515,22.524536 136.078964,22.233450 134.471558,21.960518 
	C134.097672,21.978674 133.932327,21.617048 133.926178,21.418510 
	C135.524704,21.585764 137.129379,21.951553 138.640060,22.566483 
z"/>
<path fill="#0D390E" opacity="1.000000" stroke="none" 
	d="
M108.787529,89.851074 
	C107.462234,89.470253 106.139824,88.716629 104.632835,87.689072 
	C105.895638,88.102844 107.343025,88.790558 108.787529,89.851074 
z"/>
<path fill="#1F1C02" opacity="1.000000" stroke="none" 
	d="
M19.320602,103.911530 
	C19.005634,105.191757 18.319723,106.516014 17.392036,108.061058 
	C17.750059,106.839752 18.349859,105.397659 19.320602,103.911530 
z"/>
<path fill="#0D390E" opacity="1.000000" stroke="none" 
	d="
M119.974258,97.512253 
	C119.038780,97.157349 118.030197,96.464073 116.862701,95.476135 
	C117.769577,95.845604 118.835358,96.509743 119.974258,97.512253 
z"/>
<path fill="#C6622B" opacity="1.000000" stroke="none" 
	d="
M133.633636,63.296310 
	C133.507919,64.441711 133.021408,65.542313 132.295776,66.833252 
	C132.462051,65.766228 132.867447,64.508873 133.633636,63.296310 
z"/>
<path fill="#0D390E" opacity="1.000000" stroke="none" 
	d="
M111.803886,91.814743 
	C110.964333,91.692772 110.016800,91.247826 108.933647,90.515121 
	C109.763985,90.648827 110.729950,91.070297 111.803886,91.814743 
z"/>
<path fill="#0D390E" opacity="1.000000" stroke="none" 
	d="
M115.988220,94.488693 
	C115.165207,94.364601 114.266953,93.924004 113.239151,93.204094 
	C114.044052,93.340584 114.978516,93.756393 115.988220,94.488693 
z"/>
<path fill="#C6622B" opacity="1.000000" stroke="none" 
	d="
M136.910217,62.856972 
	C136.409988,63.273842 135.839661,63.389614 135.144928,63.278191 
	C135.627060,62.885956 136.233597,62.720917 136.910217,62.856972 
z"/>
<path fill="#1050A3" opacity="1.000000" stroke="none" 
	d="
M23.157001,20.215298 
	C22.996738,20.010822 23.020647,19.577711 23.035789,19.361584 
	C23.516745,19.144827 23.982553,19.144199 24.788284,19.225399 
	C24.524557,19.678076 23.920910,20.048923 23.157001,20.215298 
z"/>
<path fill="#1F1C02" opacity="1.000000" stroke="none" 
	d="
M16.668549,89.287399 
	C16.972395,89.487366 17.054819,89.909760 17.177006,90.997528 
	C17.278700,92.134117 17.340626,92.605347 17.402552,93.076569 
	C17.402552,93.076569 17.159491,93.021370 17.040920,92.982529 
	C16.763943,91.799072 16.605534,90.654457 16.668549,89.287399 
z"/>
<path fill="#1F1C02" opacity="1.000000" stroke="none" 
	d="
M17.753548,85.108047 
	C17.902384,85.617126 17.762888,86.143494 17.401089,86.836182 
	C17.274263,86.376778 17.369741,85.751053 17.753548,85.108047 
z"/>
<path fill="#180700" opacity="1.000000" stroke="none" 
	d="
M130.188324,128.938416 
	C129.889755,128.517776 129.886398,128.215714 129.896667,127.460709 
	C130.494186,127.367668 131.078110,127.727554 131.691040,128.449493 
	C131.307877,128.893356 130.895706,128.975189 130.188324,128.938416 
z"/>
<path fill="#2F1915" opacity="1.000000" stroke="none" 
	d="
M132.320175,130.867920 
	C131.995468,130.588013 131.890793,130.124832 131.788910,129.300934 
	C132.041199,129.521713 132.290710,130.103195 132.320175,130.867920 
z"/>
<path fill="#010D31" opacity="1.000000" stroke="none" 
	d="
M129.221344,25.883881 
	C129.013931,25.795778 129.027115,25.603449 129.078339,25.123558 
	C129.116379,24.835999 129.591888,24.804676 129.806335,24.909027 
	C129.920456,25.338785 129.727509,25.594212 129.221344,25.883881 
z"/>
<path fill="#0D390E" opacity="1.000000" stroke="none" 
	d="
M112.927277,92.665009 
	C112.736191,92.779831 112.420311,92.674522 111.992081,92.339050 
	C112.187309,92.220886 112.494904,92.332878 112.927277,92.665009 
z"/>
<path fill="#1F1C02" opacity="1.000000" stroke="none" 
	d="
M17.250010,94.953400 
	C17.452127,94.954590 17.659119,95.205879 17.871326,95.706398 
	C17.564543,95.791527 17.357323,95.540810 17.250010,94.953400 
z"/>
<path fill="#1F1C02" opacity="1.000000" stroke="none" 
	d="
M18.543049,84.174591 
	C18.747747,84.359955 18.657387,84.607849 18.258606,84.907913 
	C18.083138,84.726753 18.182405,84.485771 18.543049,84.174591 
z"/>
<path fill="#0E4389" opacity="1.000000" stroke="none" 
	d="
M128.200668,20.212711 
	C128.179062,19.954134 128.366898,19.898252 128.834412,19.750202 
	C129.114090,19.658033 129.352066,20.004974 129.437607,20.195843 
	C129.152130,20.396276 128.781113,20.405842 128.200668,20.212711 
z"/>
<path fill="#1F1C02" opacity="1.000000" stroke="none" 
	d="
M18.206717,97.031860 
	C18.413395,96.969414 18.695847,97.162247 19.066673,97.598419 
	C18.864195,97.656891 18.573343,97.472015 18.206717,97.031860 
z"/>
<path fill="#010D31" opacity="1.000000" stroke="none" 
	d="
M86.691605,20.811203 
	C86.683624,21.951880 86.361168,22.909561 86.039062,24.168209 
	C83.242699,24.284613 80.421173,24.257711 77.663681,23.823839 
	C76.783813,23.685398 76.073853,22.467112 75.286148,21.742922 
	C75.949020,21.141657 76.611885,20.540392 77.691574,20.337101 
	C79.532356,21.684277 80.956314,22.633478 82.380272,23.582678 
	C82.593254,23.295528 82.806244,23.008379 83.019226,22.721228 
	C82.686165,22.028656 82.353111,21.336084 82.020050,20.643513 
	C83.472412,20.638411 84.924774,20.633308 86.691605,20.811203 
z"/>
<path fill="#0E4389" opacity="1.000000" stroke="none" 
	d="
M128.972504,24.169760 
	C125.610199,24.220961 122.044502,23.961992 118.137741,23.492697 
	C121.454140,23.474777 125.111626,23.667183 128.972504,24.169760 
z"/>
<path fill="#1050A3" opacity="1.000000" stroke="none" 
	d="
M46.220573,14.233862 
	C48.341400,13.285995 50.698658,12.587092 53.437767,11.895316 
	C51.365414,12.762570 48.911205,13.622699 46.220573,14.233862 
z"/>
<path fill="#1050A3" opacity="1.000000" stroke="none" 
	d="
M27.874371,27.932508 
	C25.201996,27.519815 22.305145,26.820545 19.175222,25.899084 
	C19.759007,25.446140 20.575865,25.215385 21.706596,25.032608 
	C23.896944,25.935699 25.773420,26.790813 27.874371,27.932508 
z"/>
<path fill="#050C24" opacity="1.000000" stroke="none" 
	d="
M81.647362,20.455788 
	C82.353111,21.336084 82.686165,22.028656 83.019226,22.721228 
	C82.806244,23.008379 82.593254,23.295528 82.380272,23.582678 
	C80.956314,22.633478 79.532356,21.684277 78.053436,20.384682 
	C79.090538,20.112215 80.182602,20.190140 81.647362,20.455788 
z"/>
<path fill="#010D31" opacity="1.000000" stroke="none" 
	d="
M111.998535,27.206928 
	C113.937790,27.060856 115.873550,27.128820 117.905540,27.540844 
	C116.317093,27.887684 114.632423,27.890461 112.528366,27.863453 
	C112.108986,27.833664 111.995041,27.420969 111.998535,27.206928 
z"/>
<path fill="#1050A3" opacity="1.000000" stroke="none" 
	d="
M35.328346,16.965992 
	C37.116241,16.158295 39.303028,15.401617 41.751354,14.767799 
	C39.917679,15.599443 37.822456,16.308226 35.328346,16.965992 
z"/>
<path fill="#010D31" opacity="1.000000" stroke="none" 
	d="
M107.724747,22.777477 
	C106.748611,22.974855 105.474968,22.996626 104.094589,22.725155 
	C105.134315,22.488567 106.280769,22.545219 107.724747,22.777477 
z"/>
<path fill="#1050A3" opacity="1.000000" stroke="none" 
	d="
M57.146255,11.230117 
	C57.502476,10.790143 58.023285,10.540983 58.838692,10.374940 
	C58.525806,10.779015 57.918324,11.099973 57.146255,11.230117 
z"/>
<path fill="#1050A3" opacity="1.000000" stroke="none" 
	d="
M61.336639,10.013971 
	C62.062489,9.628564 63.156975,9.272195 64.612770,8.918456 
	C63.884476,9.295061 62.794876,9.669037 61.336639,10.013971 
z"/>
<path fill="#010D31" opacity="1.000000" stroke="none" 
	d="
M98.781403,21.836113 
	C98.391037,22.072359 97.789368,22.136055 97.095230,21.993576 
	C97.525215,21.746122 98.047646,21.704842 98.781403,21.836113 
z"/>
<path fill="#1050A3" opacity="1.000000" stroke="none" 
	d="
M81.004440,7.776549 
	C81.581619,7.729389 82.296928,7.961249 83.212158,8.405542 
	C82.655571,8.430507 81.899071,8.243038 81.004440,7.776549 
z"/>
<path fill="#0849AA" opacity="1.000000" stroke="none" 
	d="
M17.245804,23.911098 
	C16.684681,23.854822 16.328543,23.675026 15.972404,23.495232 
	C16.449944,23.328398 16.927481,23.161564 17.679348,22.991081 
	C17.870808,23.307432 17.703178,23.574146 17.245804,23.911098 
z"/>
<path fill="#010D31" opacity="1.000000" stroke="none" 
	d="
M103.133614,26.192160 
	C103.452446,26.035488 103.971764,26.031315 104.881676,26.071728 
	C104.626213,26.192429 103.980156,26.268543 103.133614,26.192160 
z"/>
<path fill="#010D31" opacity="1.000000" stroke="none" 
	d="
M89.262985,24.881056 
	C89.253677,24.464338 89.515564,24.409473 89.901230,24.760494 
	C89.984154,24.897451 89.493324,24.973984 89.262985,24.881056 
z"/>
<path fill="#2F1915" opacity="1.000000" stroke="none" 
	d="
M60.848991,130.694717 
	C60.899624,129.820450 60.927883,129.362930 61.193779,128.329987 
	C62.449226,126.826530 63.467030,125.898476 64.577415,125.397858 
	C65.294250,132.066574 69.820641,127.124039 72.083206,128.940033 
	C73.836945,118.006866 73.300819,117.236923 65.211479,118.765648 
	C64.976273,120.141464 64.729576,121.584518 64.132004,123.025879 
	C62.846699,122.993263 61.912270,122.962334 60.977844,122.931412 
	C60.977844,120.311859 60.977844,117.692307 60.977844,114.543289 
	C65.981049,114.543289 70.801384,114.543289 76.160210,114.543289 
	C76.307091,116.673630 76.461662,118.915451 76.502060,121.570366 
	C75.946182,122.426285 75.504478,122.869110 74.804306,123.802521 
	C75.377060,125.486473 76.208267,126.679840 77.043732,128.151642 
	C77.034706,128.615234 77.021431,128.800385 77.008156,128.985550 
	C76.689621,129.869125 76.067757,130.765732 76.105103,131.634003 
	C76.266251,135.380981 74.991089,135.773880 71.700378,134.315964 
	C69.974640,133.551392 67.270256,133.540924 65.606392,134.378693 
	C61.483017,136.454865 60.645130,134.791214 60.848991,130.694717 
z"/>
<path fill="#180700" opacity="1.000000" stroke="none" 
	d="
M84.361610,129.024185 
	C85.130394,127.884972 86.324951,126.108543 87.552826,126.085213 
	C98.861557,125.870377 110.176765,125.901939 121.487816,126.043610 
	C122.671547,126.058449 123.840591,127.245979 125.050507,128.369217 
	C111.657318,128.966049 98.230080,129.083084 84.361610,129.024185 
z"/>
<path fill="#180700" opacity="1.000000" stroke="none" 
	d="
M77.329361,129.091949 
	C77.021431,128.800385 77.034706,128.615234 77.271118,127.923737 
	C78.346901,127.286201 79.199562,127.154999 80.052223,127.023788 
	C80.088707,127.337166 80.125191,127.650536 80.195389,128.436569 
	C79.369591,129.005585 78.510078,129.101959 77.329361,129.091949 
z"/>
<path fill="#55DA56" opacity="1.000000" stroke="none" 
	d="
M36.927116,86.747902 
	C34.975883,85.782585 33.014915,84.460068 31.053947,83.137550 
	C31.171047,82.777405 31.288147,82.417252 31.405247,82.057106 
	C33.994991,82.057106 36.584736,82.056198 39.174480,82.057259 
	C56.307579,82.064240 73.440910,82.032196 90.573479,82.130264 
	C92.649475,82.142151 94.721443,82.856613 97.039680,83.577057 
	C78.458794,83.936012 59.633236,83.926033 40.808769,84.064514 
	C39.366947,84.075119 36.261585,82.424919 36.927116,86.747902 
z"/>
<path fill="#54D052" opacity="1.000000" stroke="none" 
	d="
M118.676407,102.026451 
	C120.549301,102.156815 122.082741,102.291130 123.844833,102.192108 
	C122.967216,102.592468 121.866905,103.764580 120.753777,103.776894 
	C109.143463,103.905289 97.531036,103.867798 85.919319,103.834518 
	C77.462982,103.810280 69.006828,103.723457 60.180279,103.450447 
	C60.056416,102.926224 60.302868,102.616089 61.263275,102.158630 
	C80.311485,102.009323 98.645744,102.007332 116.980003,102.005341 
	C117.432327,102.013695 117.884644,102.022057 118.676407,102.026451 
z"/>
<path fill="#39EA38" opacity="1.000000" stroke="none" 
	d="
M116.675697,101.723740 
	C98.645744,102.007332 80.311485,102.009323 61.514732,101.998070 
	C62.116020,101.657608 63.178883,101.048782 64.243713,101.045326 
	C80.979729,100.991020 97.716019,101.010033 114.452194,101.038200 
	C115.092155,101.039276 115.731667,101.301575 116.675697,101.723740 
z"/>
<path fill="#55DA56" opacity="1.000000" stroke="none" 
	d="
M42.826241,90.853943 
	C41.930405,90.711937 41.031525,90.202522 39.996918,89.408775 
	C40.848530,89.578468 41.835865,90.032494 42.826241,90.853943 
z"/>
<path fill="#55DA56" opacity="1.000000" stroke="none" 
	d="
M39.863407,88.796860 
	C38.993855,88.641495 38.101284,88.126450 37.055382,87.338913 
	C37.881493,87.523338 38.860943,87.980263 39.863407,88.796860 
z"/>
<path fill="#55DA56" opacity="1.000000" stroke="none" 
	d="
M44.780075,92.270058 
	C44.295933,92.322395 43.710461,92.033455 42.982212,91.447876 
	C43.452538,91.410416 44.065639,91.669594 44.780075,92.270058 
z"/>
<path fill="#050800" opacity="1.000000" stroke="none" 
	d="
M60.791718,123.204651 
	C61.912270,122.962334 62.846699,122.993263 64.171494,123.348755 
	C64.536186,124.105698 64.510506,124.538055 64.484833,124.970421 
	C63.467030,125.898476 62.449226,126.826530 61.182556,127.985748 
	C58.531178,127.510178 56.128658,126.803436 53.384270,126.029968 
	C53.042397,125.963242 53.009716,125.982140 52.915688,125.726593 
	C52.501648,125.362633 52.181633,125.254227 51.861618,125.145828 
	C51.861618,125.145828 51.864910,125.084793 51.847450,124.742233 
	C51.105244,124.065468 50.380497,123.731247 49.655750,123.397026 
	C49.655750,123.397026 49.707920,123.138107 49.746746,122.907394 
	C49.132866,121.768242 48.480164,120.859795 47.827454,119.951355 
	C49.324619,117.975403 50.821785,115.999458 52.292652,114.058212 
	C52.933720,116.281952 53.701233,118.944336 54.770531,121.846886 
	C56.750710,123.211197 57.841179,126.674362 60.791718,123.204651 
z"/>
<path fill="#1F1C02" opacity="1.000000" stroke="none" 
	d="
M47.553810,119.980408 
	C48.480164,120.859795 49.132866,121.768242 49.696175,123.029388 
	C48.527634,122.725594 47.448494,122.069092 46.158058,121.162506 
	C46.391232,120.611443 46.835697,120.310455 47.553810,119.980408 
z"/>
<path fill="#1F1C02" opacity="1.000000" stroke="none" 
	d="
M49.790070,123.664627 
	C50.380497,123.731247 51.105244,124.065468 51.878017,124.742355 
	C51.258823,124.700768 50.591606,124.316498 49.790070,123.664627 
z"/>
<path fill="#1F1C02" opacity="1.000000" stroke="none" 
	d="
M43.303963,119.181000 
	C43.697453,119.175812 44.224216,119.432335 44.864464,119.971329 
	C44.464378,119.983421 43.950806,119.713058 43.303963,119.181000 
z"/>
<path fill="#482A16" opacity="1.000000" stroke="none" 
	d="
M51.993622,125.360321 
	C52.181633,125.254227 52.501648,125.362633 52.927265,125.713348 
	C52.730457,125.828705 52.428043,125.701759 51.993622,125.360321 
z"/>
<path fill="#3CB83C" opacity="1.000000" stroke="none" 
	d="
M50.136078,110.115959 
	C50.136078,112.568871 50.136078,115.021782 50.136078,118.678070 
	C47.543087,116.998077 45.857578,115.906044 44.034481,114.462585 
	C43.896896,114.111160 44.019897,113.972542 44.384941,114.030182 
	C49.764393,116.862022 48.452297,111.638016 49.999969,110.007080 
	C50.045853,110.042725 50.136078,110.115959 50.136078,110.115959 
z"/>
<path fill="#3CB83C" opacity="1.000000" stroke="none" 
	d="
M51.336739,103.724564 
	C52.155674,104.490135 52.974613,105.255714 53.791222,106.375916 
	C53.788891,106.730553 53.783493,106.779449 53.478428,106.854828 
	C52.763889,107.608238 52.354416,108.286263 51.954685,108.971817 
	C51.964432,108.979355 51.943962,108.949440 51.943962,108.949440 
	C51.502037,109.256691 51.060116,109.563934 50.377136,109.993576 
	C50.136078,110.115959 50.045853,110.042725 50.029476,109.611710 
	C50.454311,107.361984 50.895523,105.543274 51.336739,103.724564 
z"/>
<path fill="#050800" opacity="1.000000" stroke="none" 
	d="
M55.366966,107.026657 
	C55.708920,105.741135 56.427418,104.473076 57.483192,103.225204 
	C59.962589,106.061378 58.788902,107.064423 55.366966,107.026657 
z"/>
<path fill="#3CB83C" opacity="1.000000" stroke="none" 
	d="
M40.712620,112.303162 
	C39.688049,111.919350 38.663483,111.535545 37.316982,111.074165 
	C36.995052,110.996597 37.000214,111.001625 36.901295,110.745216 
	C36.764347,110.122742 36.726315,109.756668 36.789265,109.266907 
	C36.890247,109.143219 37.094772,108.897957 37.449516,108.925728 
	C38.882240,109.958900 39.960224,110.964302 40.956291,112.052559 
	C40.874371,112.135414 40.712620,112.303162 40.712620,112.303162 
z"/>
<path fill="#050800" opacity="1.000000" stroke="none" 
	d="
M53.790901,106.706009 
	C53.991802,106.748116 54.190685,106.814781 54.699371,106.936554 
	C54.804340,108.710510 55.380325,111.303169 52.024719,109.267883 
	C51.943962,108.949440 51.964432,108.979355 52.238186,108.857117 
	C52.935791,108.083076 53.359646,107.431267 53.783497,106.779449 
	C53.783493,106.779449 53.788891,106.730553 53.790901,106.706009 
z"/>
<path fill="#3CB83C" opacity="1.000000" stroke="none" 
	d="
M43.835762,114.180794 
	C43.264977,114.017540 42.755318,113.784653 42.111885,113.283066 
	C41.978115,113.014366 42.069935,112.908966 42.355045,112.960220 
	C43.100067,113.331825 43.559982,113.652184 44.019897,113.972542 
	C44.019897,113.972542 43.896896,114.111160 43.835762,114.180794 
z"/>
<path fill="#3CB83C" opacity="1.000000" stroke="none" 
	d="
M41.931000,113.065994 
	C41.556316,113.051239 41.270069,112.904320 40.868881,112.490021 
	C40.712620,112.303162 40.874371,112.135414 41.163025,112.167480 
	C41.709328,112.391075 41.915417,112.627548 42.069935,112.908966 
	C42.069935,112.908966 41.978115,113.014366 41.931000,113.065994 
z"/>
<path fill="#1050A3" opacity="1.000000" stroke="none" 
	d="
M33.785553,29.771566 
	C32.362614,29.596312 30.713428,29.128723 28.783134,28.402138 
	C30.187786,28.588505 31.873549,29.033869 33.785553,29.771566 
z"/>
<path fill="#2BD62C" opacity="1.000000" stroke="none" 
	d="
M42.355045,112.960220 
	C41.915417,112.627548 41.709328,112.391075 41.244942,112.084625 
	C39.960224,110.964302 38.882240,109.958900 37.356277,108.604256 
	C31.834972,104.974991 26.761642,101.694977 21.688313,98.414963 
	C21.688313,98.414963 21.637829,98.415779 21.612450,98.415199 
	C20.403608,96.665520 19.220146,94.916420 17.719618,93.121948 
	C17.340626,92.605347 17.278700,92.134117 17.267653,91.308289 
	C18.581921,88.740791 19.845308,86.527893 21.161802,84.221977 
	C23.086435,84.879494 24.704803,85.432381 26.691711,85.971313 
	C27.060251,85.957352 27.020889,85.986145 27.133270,86.246490 
	C27.888651,86.954842 28.531651,87.402847 29.174652,87.850861 
	C29.174650,87.850861 29.143353,87.788567 29.170626,88.157661 
	C30.439192,89.050934 31.680487,89.575111 32.921780,90.099297 
	C32.921780,90.099297 33.079090,90.246590 33.197983,90.686203 
	C33.916080,91.380951 34.515282,91.636093 35.114479,91.891235 
	C35.114479,91.891235 35.010059,91.878891 35.078949,92.209595 
	C35.845955,92.901108 36.544067,93.261925 37.242180,93.622742 
	C37.242180,93.622742 37.254829,93.675537 37.280151,93.975052 
	C37.927437,94.378639 38.549404,94.482719 39.171371,94.586792 
	C39.665752,94.870728 40.160133,95.154663 40.937965,95.905869 
	C41.513977,96.558372 41.806545,96.743607 42.099110,96.928833 
	C42.099110,96.928833 42.015125,96.946617 42.185486,97.174744 
	C42.910042,97.591362 43.464237,97.779839 44.018429,97.968323 
	C44.018429,97.968323 44.005310,97.997635 44.046021,98.338951 
	C46.116604,100.042931 48.146469,101.405594 50.176334,102.768265 
	C50.176334,102.768265 50.181328,102.819122 50.240788,103.073463 
	C50.594379,103.462502 50.888512,103.597191 51.182648,103.731880 
	C51.182648,103.731880 51.259491,103.703598 51.298115,103.714081 
	C50.895523,105.543274 50.454311,107.361984 49.983593,109.576065 
	C48.452297,111.638016 49.764393,116.862022 44.384941,114.030182 
	C43.559982,113.652184 43.100067,113.331825 42.355045,112.960220 
z"/>
<path fill="#3CB83C" opacity="1.000000" stroke="none" 
	d="
M50.100952,102.450607 
	C48.146469,101.405594 46.116604,100.042931 44.059486,98.329659 
	C46.030014,99.363686 48.027794,100.748322 50.100952,102.450607 
z"/>
<path fill="#3CB83C" opacity="1.000000" stroke="none" 
	d="
M32.799820,89.792931 
	C31.680487,89.575111 30.439192,89.050934 29.205418,88.155518 
	C30.367910,88.351707 31.522884,88.919136 32.799820,89.792931 
z"/>
<path fill="#3CB83C" opacity="1.000000" stroke="none" 
	d="
M37.163864,93.340782 
	C36.544067,93.261925 35.845955,92.901108 35.130180,92.197495 
	C35.770195,92.256073 36.427872,92.657448 37.163864,93.340782 
z"/>
<path fill="#3CB83C" opacity="1.000000" stroke="none" 
	d="
M38.993877,94.376358 
	C38.549404,94.482719 37.927437,94.378639 37.305878,93.983719 
	C37.809650,93.850555 38.313019,94.008240 38.993877,94.376358 
z"/>
<path fill="#3CB83C" opacity="1.000000" stroke="none" 
	d="
M29.110474,87.544716 
	C28.531651,87.402847 27.888651,86.954842 27.131653,86.223602 
	C27.693869,86.373108 28.370083,86.805840 29.110474,87.544716 
z"/>
<path fill="#3CB83C" opacity="1.000000" stroke="none" 
	d="
M34.958199,91.611954 
	C34.515282,91.636093 33.916080,91.380951 33.212307,90.792999 
	C33.672462,90.751007 34.237190,91.041840 34.958199,91.611954 
z"/>
<path fill="#3CB83C" opacity="1.000000" stroke="none" 
	d="
M43.857735,97.720291 
	C43.464237,97.779839 42.910042,97.591362 42.208282,97.138382 
	C42.606155,97.073341 43.151596,97.272797 43.857735,97.720291 
z"/>
<path fill="#3CB83C" opacity="1.000000" stroke="none" 
	d="
M51.149609,103.463043 
	C50.888512,103.597191 50.594379,103.462502 50.218815,103.086510 
	C50.463779,102.961548 50.790173,103.077873 51.149609,103.463043 
z"/>
<path fill="#3CB83C" opacity="1.000000" stroke="none" 
	d="
M42.011497,96.675186 
	C41.806545,96.743607 41.513977,96.558372 41.116096,96.129150 
	C41.315147,96.063957 41.619514,96.242752 42.011497,96.675186 
z"/>
<path fill="#030202" opacity="1.000000" stroke="none" 
	d="
M79.852020,126.754944 
	C79.199562,127.154999 78.346901,127.286201 77.266861,127.645309 
	C76.208267,126.679840 75.377060,125.486473 74.767593,124.051193 
	C76.543495,124.701553 78.097656,125.593826 79.852020,126.754944 
z"/>
<path fill="#3CB83C" opacity="1.000000" stroke="none" 
	d="
M21.779436,98.729965 
	C26.761642,101.694977 31.834972,104.974991 37.001537,108.576485 
	C37.094772,108.897957 36.890247,109.143219 36.633217,109.354843 
	C36.185509,109.731384 36.068344,109.938042 36.024700,110.186432 
	C31.306652,106.472610 26.588606,102.758789 21.779436,98.729965 
z"/>
<path fill="#0D390E" opacity="1.000000" stroke="none" 
	d="
M36.134285,110.380096 
	C36.068344,109.938042 36.185509,109.731384 36.532234,109.478531 
	C36.726315,109.756668 36.764347,110.122742 36.905083,110.746078 
	C36.700272,110.954147 36.445633,110.810944 36.134285,110.380096 
z"/>
<path fill="#E14C4C" opacity="1.000000" stroke="none" 
	d="
M64.577415,125.397858 
	C64.510506,124.538055 64.536186,124.105698 64.522369,123.350456 
	C64.729576,121.584518 64.976273,120.141464 65.211479,118.765648 
	C73.300819,117.236923 73.836945,118.006866 72.083206,128.940033 
	C69.820641,127.124039 65.294250,132.066574 64.577415,125.397858 
z"/>
<path fill="#0D390E" opacity="1.000000" stroke="none" 
	d="
M53.478432,106.854836 
	C53.359646,107.431267 52.935791,108.083076 52.228439,108.849586 
	C52.354416,108.286263 52.763889,107.608238 53.478432,106.854836 
z"/>
</svg>