<svg xmlns="http://www.w3.org/2000/svg" fill="none" viewBox="-2.085 -2.085 100 100" id="Cash-Payment-Bill--Streamline-Ultimate" height="100" width="100">
  <desc>
    Cash Payment Bill Streamline Icon: https://streamlinehq.com
  </desc>
  <path fill="#78eb7b" d="M26.909303575 13.506759350000001c0 -0.25079509583333337 0.049392379166666674 -0.49911458333333336 0.1453421666666667 -0.7307836083333333 0.09598971666666667 -0.23170895416666668 0.23666017083333335 -0.4422155208333334 0.4139856 -0.61954095 0.17732542916666666 -0.17732542916666666 0.38783199583333333 -0.31799588333333334 0.61954095 -0.4139856 0.23166902500000003 -0.09594978750000001 0.4799885125 -0.1453421666666667 0.7307836083333333 -0.1453421666666667H82.289221c0.25075516666666664 0 0.49911458333333336 0.049392379166666674 0.73070375 0.1453421666666667 0.23198845833333334 0.09598971666666667 0.4424151666666667 0.23666017083333335 0.6197006666666667 0.4139856 0.1772855 0.17732542916666666 0.3178361666666667 0.38783199583333333 0.41406545833333336 0.61954095 0.09583000000000001 0.23166902500000003 0.1453421666666667 0.4799885125 0.1453421666666667 0.7307836083333333v26.735052691666667c0 0.5067011250000001 -0.201243 0.9922397916666668 -0.5594076250000001 1.3504044166666667s-0.8437032916666667 0.5594076250000001 -1.3504044166666667 0.5594076250000001H28.818955900000002c-0.50646155 0 -0.9921998625 -0.201243 -1.3503245583333334 -0.5594076250000001 -0.3581246958333334 -0.358164625 -0.5593277666666667 -0.8437032916666667 -0.5593277666666667 -1.3504044166666667V13.506759350000001Z" stroke-width="4.17"></path>
  <path fill="#c9f7ca" d="M28.818955900000002 11.597107025000001c-0.50646155 0 -0.9921998625 0.20120307083333333 -1.3503245583333334 0.5593277666666667 -0.3581246958333334 0.3581246958333334 -0.5593277666666667 0.8438630083333334 -0.5593277666666667 1.3503245583333334v26.735052691666667c0 0.5067011250000001 0.20120307083333333 0.9922397916666668 0.5593277666666667 1.3504044166666667 0.3581246958333334 0.358164625 0.8438630083333334 0.5594076250000001 1.3503245583333334 0.5594076250000001h11.186874766666667l30.554197625 -30.554517058333335H28.818955900000002Z" stroke-width="4.17"></path>
  <path stroke="#191919" stroke-linecap="round" stroke-linejoin="round" d="M26.909303575 13.506759350000001c0 -0.25079509583333337 0.049392379166666674 -0.49911458333333336 0.1453421666666667 -0.7307836083333333 0.09598971666666667 -0.23170895416666668 0.23666017083333335 -0.4422155208333334 0.4139856 -0.61954095 0.17732542916666666 -0.17732542916666666 0.38783199583333333 -0.31799588333333334 0.61954095 -0.4139856 0.23166902500000003 -0.09594978750000001 0.4799885125 -0.1453421666666667 0.7307836083333333 -0.1453421666666667H82.289221c0.25075516666666664 0 0.49911458333333336 0.049392379166666674 0.73070375 0.1453421666666667 0.23198845833333334 0.09598971666666667 0.4424151666666667 0.23666017083333335 0.6197006666666667 0.4139856 0.1772855 0.17732542916666666 0.3178361666666667 0.38783199583333333 0.41406545833333336 0.61954095 0.09583000000000001 0.23166902500000003 0.1453421666666667 0.4799885125 0.1453421666666667 0.7307836083333333v26.735052691666667c0 0.5067011250000001 -0.201243 0.9922397916666668 -0.5594076250000001 1.3504044166666667s-0.8437032916666667 0.5594076250000001 -1.3504044166666667 0.5594076250000001H28.818955900000002c-0.50646155 0 -0.9921998625 -0.201243 -1.3503245583333334 -0.5594076250000001 -0.3581246958333334 -0.358164625 -0.5593277666666667 -0.8437032916666667 -0.5593277666666667 -1.3504044166666667V13.506759350000001Z" stroke-width="4.17"></path>
  <path stroke="#191919" stroke-linecap="round" stroke-linejoin="round" d="m67.18920804166667 11.597107025000001 17.02659525 13.367566275000001" stroke-width="4.17"></path>
  <path stroke="#191919" stroke-linecap="round" stroke-linejoin="round" d="m69.59533962500001 42.15162408333333 14.624057291666668 -13.367725991666667" stroke-width="4.17"></path>
  <path stroke="#191919" stroke-linecap="round" stroke-linejoin="round" d="m26.909303575 28.783898091666668 14.620224091666667 13.367725991666667" stroke-width="4.17"></path>
  <path stroke="#191919" stroke-linecap="round" stroke-linejoin="round" d="m26.909303575 24.9646733 16.94609805 -13.367566275000001" stroke-width="4.17"></path>
  <path fill="#ffffff" stroke="#191919" stroke-linecap="round" stroke-linejoin="round" d="M55.554647458333335 32.603043025c0.7522655000000001 0 1.4973437500000002 -0.1481771375 2.192510541666667 -0.43610635833333333 0.6947675 -0.28788929166666666 1.3264469166666668 -0.7099006541666667 1.8583034166666668 -1.2418769416666668 0.5322557916666667 -0.5319762875 0.9543070833333334 -1.1635359166666668 1.242196375 -1.8586228500000002 0.28788929166666666 -0.6950470041666668 0.43602650000000004 -1.4400054666666668 0.43602650000000004 -2.192350825 0 -0.7523453583333334 -0.14813720833333335 -1.4973038208333334 -0.43602650000000004 -2.1923907541666665 -0.28788929166666666 -0.6950869333333334 -0.7099405833333334 -1.3266465625000001 -1.242196375 -1.8586228500000002 -0.5318565000000001 -0.5319762875 -1.1635359166666668 -0.9539477208333335 -1.8583034166666668 -1.2418769416666668 -0.6951667916666667 -0.28788929166666666 -1.4402450416666668 -0.43610635833333333 -2.192510541666667 -0.43610635833333333 -1.5193047916666669 0 -2.9767193750000005 0.6036092125 -4.050813958333333 1.6779833000000002 -1.0744938750000002 1.0744140166666667 -1.6782228750000001 2.531589025 -1.6782228750000001 4.051013604166667 0 1.5193846500000001 0.6037290000000001 2.9765995875 1.6782228750000001 4.050973675 1.0740945833333335 1.0744140166666667 2.531509166666667 1.6779833000000002 4.050813958333333 1.6779833000000002Z" stroke-width="4.17"></path>
  <path fill="#ffdda1" d="m80.37900966666668 61.31682550000001 -16.884846708333335 5.606853583333333h-0.04232491666666667c0.3497795 -0.638467375 0.5106940416666668 -1.3627824583333334 0.46477550000000006 -2.0890940000000002 -0.04591854166666667 -0.72591225 -0.297073 -1.424273375 -0.724714375 -2.0132285833333334 -0.42724208333333336 -0.5889552083333334 -1.0130029583333333 -1.0445470000000001 -1.6890037500000001 -1.3136695833333334 -0.6760007916666667 -0.26912258333333333 -1.4146903750000002 -0.3405957916666667 -2.12982175 -0.2060345H47.915000000000006c-4.526769625 -4.6717125 -10.686083158333334 -7.409256166666666 -17.18691085416667 -7.638848875000001H19.270175195833332L3.992916666666667 61.30165241666667v22.915748041666667l15.277258529166668 -9.548261625000002C60.24392879166667 88.33090320833334 45.13073920833334 88.46825954166668 91.83708333333334 65.12087720833334c-1.2905106666666666 -1.7313286666666667 -3.081333791666667 -3.0246343749999998 -5.130498625 -3.705027375 -2.049164833333333 -0.6799937083333334 -4.258046333333334 -0.7147320833333334 -6.327575041666667 -0.09902433333333334Z" stroke-width="4.17"></path>
  <path stroke="#191919" stroke-linecap="round" stroke-linejoin="round" d="m63.494162958333334 66.92367908333334 16.884846708333335 -5.606853583333333c2.0711258750000003 -0.6141105833333333 4.2808059583333335 -0.5769764583333333 6.330370083333333 0.10621158333333333 2.049164833333333 0.6831880416666667 3.839189375 1.9792887916666666 5.127703583333334 3.7130132083333334 -46.706344125 23.347781625 -31.593154541666667 23.210026000000003 -72.56690813750001 9.548261625000002L3.992916666666667 84.23297283333335" stroke-width="4.17"></path>
  <path stroke="#191919" stroke-linecap="round" stroke-linejoin="round" d="M38.366738375000004 68.940102h21.00633529166667c0.5586090416666667 0.10022220833333334 1.1323911666666668 0.07706329166666667 1.6810179166666668 -0.06867816666666667 0.5490260416666667 -0.14574145833333332 1.0589215 -0.4100725416666667 1.4945487083333335 -0.7742265416666667 0.4352279166666667 -0.36415400000000003 0.7854067083333335 -0.8193465 1.0257802916666667 -1.333634166666667 0.24037358333333333 -0.5142876666666667 0.36495258333333336 -1.0752924583333334 0.36495258333333336 -1.6426859166666667 0 -0.56779275 -0.124579 -1.12839825 -0.36495258333333336 -1.6426859166666667 -0.24037358333333333 -0.5142876666666667 -0.590552375 -0.9698794583333334 -1.0257802916666667 -1.3340334583333335 -0.43562720833333335 -0.36415400000000003 -0.9455226666666667 -0.6284850833333334 -1.4945487083333335 -0.7738272500000001 -0.54862675 -0.14574145833333332 -1.122408875 -0.16929966666666668 -1.6810179166666668 -0.06867816666666667H47.915000000000006c-4.526769625 -4.6717125 -10.686083158333334 -7.409256166666666 -17.18691085416667 -7.638848875000001H19.270175195833332L3.992916666666667 61.30165241666667" stroke-width="4.17"></path>
</svg>