<svg id="svg" version="1.1" width="400" height="400" viewBox="0 0 400 400" xmlns="http://www.w3.org/2000/svg" xmlns:xlink="http://www.w3.org/1999/xlink"><g id="svgg"><path id="path0" d="M222.800 128.517 C 222.690 128.632,220.620 128.924,218.200 129.166 C 203.700 130.618,193.592 136.608,186.858 147.741 C 185.946 149.248,185.200 150.629,185.200 150.808 C 185.200 150.988,184.941 151.645,184.624 152.268 C 180.816 159.761,180.006 165.445,180.003 184.695 L 180.000 199.990 165.100 200.095 L 150.200 200.200 150.200 217.000 L 150.200 233.800 165.000 234.000 L 179.800 234.200 180.000 278.400 L 180.200 322.600 198.000 322.705 C 214.527 322.803,215.837 322.760,216.311 322.114 C 216.719 321.558,216.815 312.607,216.788 277.809 L 216.753 234.200 230.477 234.000 L 244.200 233.800 244.476 232.400 C 244.628 231.630,245.224 227.310,245.799 222.800 C 246.374 218.290,247.015 213.520,247.224 212.200 C 247.806 208.506,248.522 202.735,248.563 201.400 L 248.600 200.200 232.700 200.095 L 216.800 199.991 216.807 188.295 C 216.814 176.102,216.892 175.389,218.863 169.415 C 219.509 167.459,223.452 163.166,225.660 162.016 C 228.901 160.326,231.273 160.000,240.384 159.994 C 245.123 159.991,249.227 159.843,249.505 159.667 C 249.900 159.417,249.987 156.297,249.905 145.429 L 249.800 131.511 248.400 131.005 C 244.946 129.758,223.599 127.683,222.800 128.517 " stroke="none" fill="#f2f9fb" fill-rule="evenodd"></path><path id="path1" d="M125.600 79.200 C 125.050 79.615,123.970 80.071,123.200 80.213 C 120.214 80.764,116.494 81.160,114.124 81.179 C 111.724 81.199,110.498 81.756,111.775 82.246 C 113.944 83.078,111.038 84.936,108.183 84.541 C 106.020 84.241,104.862 85.339,106.632 86.012 L 107.750 86.437 106.465 87.219 C 105.759 87.648,104.926 88.000,104.614 88.000 C 104.302 88.000,103.949 88.158,103.830 88.352 C 103.710 88.545,102.811 88.613,101.830 88.502 C 99.300 88.217,98.061 88.618,97.759 89.820 C 97.436 91.109,95.546 92.172,94.808 91.480 C 94.399 91.096,94.344 91.200,94.532 92.003 C 94.883 93.503,94.240 94.333,93.218 93.700 C 92.202 93.071,92.283 93.060,91.261 93.947 C 90.278 94.800,90.136 95.276,90.960 94.960 C 91.831 94.626,92.216 95.653,91.433 96.225 C 90.783 96.700,90.785 96.752,91.461 97.130 C 92.080 97.477,91.989 97.580,90.789 97.889 C 89.145 98.312,88.780 99.627,89.773 101.548 C 90.705 103.350,89.575 105.600,87.738 105.600 C 87.123 105.600,86.789 105.841,86.768 106.300 C 86.751 106.685,86.649 106.785,86.542 106.522 C 86.436 106.259,86.546 105.674,86.788 105.222 C 87.143 104.559,87.110 104.400,86.614 104.400 C 86.276 104.400,86.000 104.567,86.000 104.772 C 86.000 104.977,85.595 105.202,85.100 105.273 C 84.380 105.375,84.217 105.632,84.283 106.558 C 84.403 108.223,83.712 109.391,82.972 108.777 C 82.508 108.392,82.400 108.454,82.400 109.108 C 82.400 110.131,83.466 110.569,83.931 109.738 C 84.405 108.891,85.947 109.393,86.379 110.535 C 86.838 111.750,86.572 112.000,84.819 112.000 C 83.833 112.000,83.204 111.788,83.058 111.407 C 82.928 111.069,82.565 110.915,82.215 111.050 C 81.489 111.328,81.281 119.600,82.000 119.600 C 82.696 119.600,82.433 121.046,81.600 121.800 C 80.655 122.656,80.555 123.820,81.400 124.145 C 82.112 124.418,83.200 124.063,83.200 123.557 C 83.200 123.361,83.515 123.206,83.900 123.213 C 84.480 123.224,84.433 123.366,83.625 124.038 C 82.925 124.621,82.194 124.817,81.041 124.734 C 79.618 124.631,79.403 124.733,79.179 125.609 C 78.831 126.978,79.424 127.647,80.591 127.203 C 81.668 126.794,84.500 127.514,84.135 128.104 C 84.007 128.313,83.830 129.410,83.744 130.542 C 83.588 132.584,82.737 134.945,81.989 135.407 C 81.775 135.539,81.600 135.972,81.600 136.370 C 81.600 136.767,81.195 137.607,80.700 138.236 L 79.800 139.380 79.667 193.790 C 79.525 252.094,79.663 260.842,80.745 261.978 C 84.091 265.497,85.108 271.400,82.497 272.146 C 81.472 272.438,81.037 272.377,80.465 271.859 C 79.514 270.998,79.200 271.027,79.200 271.976 C 79.200 272.403,79.031 272.857,78.824 272.985 C 78.423 273.233,79.007 275.406,79.720 276.316 C 79.943 276.600,80.176 277.410,80.238 278.116 C 81.045 287.249,81.694 289.354,83.365 288.259 C 84.770 287.339,85.009 287.410,85.960 289.023 C 87.067 290.898,87.126 292.019,86.069 291.062 C 84.961 290.060,84.261 290.216,84.553 291.400 C 84.689 291.950,84.916 292.895,85.057 293.500 C 85.198 294.105,85.648 295.078,86.057 295.662 C 86.466 296.246,86.800 297.182,86.800 297.742 C 86.800 298.302,87.061 298.906,87.379 299.084 C 87.697 299.262,88.192 300.113,88.479 300.973 C 89.114 302.880,89.711 303.152,90.322 301.810 C 90.942 300.450,92.645 300.422,93.256 301.762 C 93.744 302.835,92.817 304.571,91.520 305.010 C 90.687 305.293,90.991 306.260,92.098 306.852 C 92.707 307.178,92.985 307.151,93.245 306.741 C 93.485 306.362,93.590 306.523,93.594 307.276 C 93.605 309.176,95.770 309.255,96.242 307.373 C 96.519 306.270,97.778 306.046,98.157 307.033 C 98.553 308.065,98.435 309.404,97.900 309.948 C 97.251 310.608,98.842 312.000,100.244 312.000 C 100.770 312.000,101.200 312.180,101.200 312.400 C 101.200 312.620,101.560 312.800,102.000 312.800 C 102.873 312.800,103.108 311.774,102.300 311.492 C 101.440 311.191,103.206 309.600,104.400 309.600 C 105.617 309.600,107.005 310.888,106.686 311.721 C 106.569 312.025,106.616 312.502,106.790 312.783 C 106.981 313.092,106.808 313.592,106.353 314.047 C 105.155 315.245,105.365 316.115,106.777 315.805 C 107.424 315.663,108.324 315.745,108.777 315.987 C 109.507 316.378,109.600 316.314,109.600 315.414 C 109.600 314.650,109.807 314.400,110.443 314.400 C 111.037 314.400,111.216 314.582,111.050 315.015 C 110.915 315.365,111.069 315.728,111.407 315.858 C 112.119 316.131,112.184 317.256,111.527 317.913 C 110.822 318.618,111.044 318.674,115.500 318.909 C 118.706 319.077,119.600 319.011,119.600 318.605 C 119.600 317.639,120.709 317.652,121.627 318.629 C 123.325 320.436,125.164 319.426,123.844 317.411 C 122.930 316.015,123.002 315.466,124.028 316.015 C 124.728 316.390,124.839 316.779,124.744 318.529 C 124.636 320.536,124.667 320.604,125.764 320.731 C 127.473 320.929,128.951 320.469,128.490 319.884 C 128.280 319.618,128.115 318.780,128.121 318.022 C 128.128 317.264,127.923 316.574,127.667 316.489 C 127.410 316.403,127.200 315.772,127.200 315.087 C 127.200 313.654,127.851 314.036,128.076 315.600 C 128.157 316.170,128.446 316.552,128.747 316.487 C 129.806 316.262,134.000 317.310,134.000 317.801 C 134.000 318.076,134.757 318.419,135.696 318.569 C 136.628 318.718,137.790 319.215,138.279 319.674 C 139.256 320.592,176.450 320.910,177.352 320.008 C 177.799 319.561,178.354 237.372,177.915 236.661 C 177.593 236.139,156.311 235.752,153.208 236.211 C 151.610 236.448,151.494 236.533,152.131 236.999 C 152.979 237.619,150.061 238.337,149.115 237.741 C 148.764 237.520,148.975 237.351,149.777 237.208 C 151.104 236.974,151.344 236.273,150.172 236.059 C 149.089 235.860,148.000 234.809,148.000 233.962 C 148.000 232.877,147.178 232.598,146.918 233.594 C 146.745 234.253,146.606 234.336,146.351 233.934 C 145.768 233.014,145.968 231.806,146.824 231.072 C 148.220 229.877,147.757 227.852,146.032 227.600 C 143.998 227.303,143.949 226.400,145.967 226.400 L 147.600 226.400 147.600 213.360 L 147.600 200.320 148.974 198.946 C 150.338 197.582,150.367 197.574,152.999 197.844 C 155.748 198.126,174.570 198.281,176.493 198.038 C 178.501 197.784,178.508 197.731,178.384 183.499 C 178.217 164.204,178.593 159.468,180.455 157.420 C 180.645 157.211,180.800 156.433,180.800 155.691 C 180.800 154.950,181.070 154.073,181.400 153.743 C 181.730 153.413,182.000 152.811,182.000 152.405 C 182.000 151.234,183.518 148.006,184.189 147.749 C 184.525 147.620,184.800 147.196,184.800 146.806 C 184.800 146.417,185.070 145.874,185.400 145.600 C 185.730 145.326,186.000 144.869,186.000 144.584 C 186.000 144.298,186.641 143.465,187.424 142.732 C 188.599 141.633,188.814 141.190,188.651 140.200 C 188.543 139.540,188.547 139.225,188.660 139.500 C 189.022 140.376,190.338 140.039,190.878 138.932 C 191.165 138.344,191.981 137.579,192.691 137.232 C 193.401 136.884,193.986 136.316,193.991 135.970 C 194.008 134.816,196.764 132.800,198.325 132.800 C 198.752 132.800,199.326 132.530,199.600 132.200 C 199.874 131.870,200.417 131.600,200.806 131.600 C 201.196 131.600,201.614 131.340,201.736 131.022 C 201.858 130.705,202.732 130.224,203.679 129.955 C 204.625 129.686,205.571 129.315,205.780 129.133 C 205.989 128.950,207.275 128.800,208.637 128.800 C 210.470 128.800,211.174 128.644,211.345 128.200 C 211.505 127.781,212.159 127.600,213.507 127.600 C 214.570 127.600,215.633 127.407,215.869 127.171 C 216.840 126.200,243.224 127.136,244.381 128.182 C 244.839 128.597,245.865 128.800,247.505 128.800 C 252.761 128.800,252.661 128.445,252.398 146.285 C 252.152 162.863,253.069 161.170,244.326 161.187 C 240.410 161.195,237.629 161.379,236.926 161.675 C 236.307 161.936,234.607 162.175,233.149 162.204 C 230.686 162.255,228.794 162.865,225.200 164.768 C 223.902 165.456,224.248 166.435,225.754 166.334 C 226.534 166.281,227.298 166.365,227.453 166.519 C 227.607 166.674,227.096 166.800,226.317 166.800 C 224.144 166.800,222.400 167.246,222.400 167.801 C 222.400 168.077,222.130 168.526,221.800 168.800 C 221.470 169.074,221.200 169.602,221.200 169.974 C 221.200 170.346,220.750 171.583,220.200 172.723 C 219.650 173.863,219.200 175.142,219.200 175.565 C 219.200 175.987,218.976 176.408,218.702 176.499 C 218.317 176.628,218.353 177.132,218.861 178.718 C 219.421 180.469,219.435 180.839,218.959 181.234 C 218.514 181.603,218.400 183.357,218.400 189.828 L 218.400 197.958 220.700 197.999 C 221.965 198.021,226.960 198.142,231.800 198.268 C 237.891 198.427,241.551 198.345,243.688 198.003 C 247.240 197.435,249.329 198.106,250.322 200.134 C 250.870 201.254,251.804 201.548,252.119 200.700 C 252.259 200.320,252.448 200.345,252.903 200.800 C 253.602 201.501,254.220 208.000,253.587 208.000 C 253.374 208.000,253.200 206.818,253.200 205.373 C 253.200 202.767,253.192 202.748,252.140 202.873 C 250.520 203.067,249.656 205.868,249.326 212.000 C 249.226 213.870,248.976 215.571,248.772 215.780 C 248.567 215.989,248.400 216.785,248.400 217.549 C 248.400 218.313,248.111 220.478,247.759 222.361 C 247.150 225.609,247.173 228.647,247.828 231.324 C 248.056 232.258,247.958 232.486,247.247 232.672 C 246.740 232.804,246.298 233.325,246.162 233.948 C 245.757 235.811,245.673 235.920,244.437 236.192 C 242.775 236.557,243.784 238.400,245.646 238.400 C 246.533 238.400,246.800 238.585,246.800 239.200 C 246.800 240.249,245.054 240.294,244.323 239.263 C 244.035 238.858,243.402 238.316,242.915 238.057 C 242.414 237.791,242.122 237.348,242.242 237.034 C 242.627 236.031,233.847 235.790,218.700 236.388 C 218.227 236.407,218.327 319.600,218.800 319.600 C 219.020 319.600,219.200 319.870,219.200 320.200 C 219.200 320.901,219.831 320.998,220.226 320.357 C 220.417 320.049,220.602 320.079,220.838 320.457 C 221.110 320.894,221.330 320.904,221.969 320.508 C 222.468 320.199,222.853 320.162,223.005 320.408 C 223.158 320.655,230.139 320.800,241.850 320.800 L 260.453 320.800 261.727 319.834 C 262.427 319.302,263.675 318.742,264.500 318.589 C 265.325 318.436,266.000 318.084,266.000 317.808 C 266.000 317.231,270.564 316.207,271.249 316.630 C 271.531 316.805,271.598 317.594,271.434 318.831 C 271.214 320.490,271.288 320.819,271.963 321.180 C 272.943 321.704,274.400 321.727,274.400 321.218 C 274.400 321.008,275.075 320.728,275.900 320.596 C 276.725 320.464,277.695 320.197,278.055 320.003 C 278.415 319.809,280.933 319.445,283.651 319.195 C 289.064 318.697,289.129 318.679,288.434 317.841 C 287.473 316.684,289.060 315.600,291.716 315.600 C 293.872 315.600,294.034 315.538,293.800 314.800 C 293.591 314.142,293.728 314.000,294.573 314.000 C 295.760 314.000,295.875 313.689,294.939 313.005 C 294.170 312.442,294.532 311.600,295.544 311.600 C 295.927 311.600,296.456 311.384,296.720 311.120 C 297.093 310.747,297.307 310.747,297.680 311.120 C 298.823 312.263,301.455 311.698,302.779 310.026 C 303.732 308.823,304.280 308.470,305.109 308.526 C 306.102 308.594,306.182 308.492,306.066 307.300 C 305.946 306.060,306.475 305.550,307.000 306.400 C 307.677 307.496,309.561 306.223,309.587 304.651 C 309.598 304.025,309.500 303.985,308.990 304.408 C 308.200 305.064,308.009 304.822,308.434 303.700 C 308.658 303.108,309.106 302.800,309.744 302.800 C 311.374 302.800,311.656 301.039,310.400 298.696 C 308.519 295.186,309.856 293.197,313.013 294.807 C 313.883 295.250,314.620 295.475,314.649 295.307 C 315.090 292.787,317.147 288.755,317.938 288.860 C 319.074 289.011,319.721 288.761,319.297 288.337 C 318.621 287.661,316.400 287.606,316.400 288.264 C 316.400 288.569,315.969 288.800,315.400 288.800 C 313.303 288.800,314.299 287.865,317.371 286.949 C 319.397 286.345,319.516 283.167,317.532 282.669 C 315.407 282.135,316.542 277.234,318.995 276.347 C 321.790 275.336,321.967 271.804,319.200 272.246 C 316.339 272.704,314.880 269.495,316.542 266.400 C 316.837 265.850,317.473 264.657,317.955 263.748 C 318.436 262.840,319.176 261.784,319.598 261.402 C 320.348 260.723,320.366 259.332,320.379 199.950 L 320.393 139.193 319.497 138.299 C 318.684 137.489,318.191 136.705,316.537 133.600 C 315.532 131.712,315.832 128.444,317.053 127.980 C 318.172 127.554,319.618 127.823,320.078 128.542 C 320.231 128.781,320.496 128.837,320.667 128.667 C 320.837 128.496,320.712 128.183,320.388 127.971 C 319.882 127.639,319.898 127.528,320.500 127.173 C 321.345 126.675,321.382 125.934,320.646 124.260 C 320.075 122.963,318.787 114.794,318.795 112.524 C 318.802 110.827,318.170 110.524,316.778 111.553 C 315.087 112.803,314.096 111.984,314.900 110.000 C 315.123 109.450,315.269 108.343,315.225 107.541 C 315.181 106.738,315.351 105.954,315.602 105.799 C 316.240 105.405,314.204 104.400,312.768 104.400 C 311.482 104.400,310.470 103.088,311.128 102.274 C 312.418 100.680,311.265 97.922,309.518 98.423 C 306.898 99.175,302.745 96.256,304.332 94.778 C 304.809 94.333,305.202 93.751,305.205 93.484 C 305.208 93.218,305.316 92.607,305.445 92.127 C 305.638 91.407,305.541 91.290,304.891 91.460 C 304.346 91.603,303.675 91.225,302.713 90.236 C 301.949 89.449,300.756 88.691,300.062 88.552 C 299.368 88.414,298.800 88.053,298.800 87.750 C 298.800 87.129,298.072 87.040,297.252 87.559 C 296.810 87.840,296.848 87.988,297.452 88.330 C 298.451 88.896,297.180 89.968,295.487 89.987 C 294.352 90.000,293.526 88.951,294.284 88.460 C 296.142 87.255,294.278 84.000,291.730 84.000 C 290.386 84.000,288.800 82.685,288.800 81.571 C 288.800 80.359,288.244 79.986,287.875 80.950 C 287.696 81.416,287.137 81.415,284.200 80.945 C 280.790 80.399,280.725 80.404,280.024 81.269 C 279.070 82.448,276.852 81.896,276.078 80.286 C 275.536 79.157,275.105 79.047,271.800 79.193 C 269.775 79.282,269.256 79.757,270.129 80.722 C 270.881 81.552,271.027 82.187,270.373 81.783 C 270.138 81.638,268.232 81.492,266.137 81.460 C 262.687 81.406,262.259 81.314,261.587 80.483 L 260.845 79.566 199.857 79.566 L 138.870 79.566 137.853 80.583 C 137.294 81.142,136.617 81.600,136.350 81.600 C 136.082 81.600,135.530 81.902,135.122 82.271 C 134.559 82.780,134.269 82.829,133.916 82.476 C 133.563 82.123,133.301 82.141,132.825 82.552 C 131.507 83.693,128.829 83.728,128.404 82.609 C 128.004 81.558,128.234 80.400,128.843 80.400 C 129.616 80.400,129.143 79.302,128.181 78.864 C 126.893 78.277,126.807 78.288,125.600 79.200 M288.983 84.372 C 289.279 84.851,288.526 85.325,287.993 84.996 C 287.546 84.719,287.840 84.000,288.400 84.000 C 288.594 84.000,288.856 84.168,288.983 84.372 M292.000 86.400 C 292.464 86.700,292.337 86.789,291.444 86.794 C 290.808 86.797,290.049 87.115,289.757 87.500 C 289.369 88.011,289.222 88.050,289.213 87.644 C 289.186 86.479,290.922 85.704,292.000 86.400 M103.932 93.458 C 103.850 93.884,103.451 94.200,102.995 94.200 C 101.934 94.200,101.655 92.535,102.677 92.303 C 103.624 92.087,104.110 92.534,103.932 93.458 M306.229 94.629 C 305.454 95.403,305.431 95.850,306.151 96.126 C 306.847 96.393,307.600 95.662,307.600 94.720 C 307.600 93.833,307.060 93.797,306.229 94.629 M298.000 95.000 C 298.000 95.371,297.624 95.600,297.013 95.600 C 296.299 95.600,296.089 95.433,296.255 95.000 C 296.382 94.670,296.826 94.400,297.243 94.400 C 297.659 94.400,298.000 94.670,298.000 95.000 M312.800 105.800 C 312.800 106.350,312.620 106.800,312.400 106.800 C 312.180 106.800,312.000 106.350,312.000 105.800 C 312.000 105.250,312.180 104.800,312.400 104.800 C 312.620 104.800,312.800 105.250,312.800 105.800 M93.521 110.947 C 93.375 111.967,92.095 112.313,91.754 111.424 C 91.438 110.600,92.289 109.582,93.050 109.875 C 93.378 110.000,93.588 110.479,93.521 110.947 M256.319 128.635 C 256.486 129.805,255.402 130.666,254.600 130.000 C 253.970 129.477,253.801 128.332,254.284 127.850 C 254.848 127.285,256.201 127.807,256.319 128.635 M198.574 128.358 C 198.840 128.788,197.681 129.297,197.164 128.978 C 196.964 128.854,196.800 128.583,196.800 128.376 C 196.800 127.897,198.280 127.882,198.574 128.358 M182.400 128.992 C 182.400 129.798,180.417 130.275,179.983 129.573 C 179.495 128.783,179.900 128.400,181.224 128.400 C 181.996 128.400,182.400 128.603,182.400 128.992 M213.000 129.227 C 211.899 129.482,211.940 129.509,213.500 129.553 C 215.196 129.600,215.647 129.436,214.700 129.118 C 214.425 129.025,213.660 129.075,213.000 129.227 M240.200 129.200 C 240.057 129.431,240.428 129.597,241.076 129.594 C 241.949 129.589,242.066 129.501,241.600 129.200 C 240.831 128.703,240.507 128.703,240.200 129.200 M194.400 133.000 C 193.822 133.697,193.200 133.788,193.200 133.176 C 193.200 132.943,193.380 132.864,193.600 133.000 C 193.820 133.136,194.000 133.057,194.000 132.824 C 194.000 132.591,194.202 132.400,194.449 132.400 C 194.759 132.400,194.744 132.585,194.400 133.000 M177.600 134.000 C 177.600 134.844,177.018 135.076,176.600 134.400 C 176.464 134.180,176.588 133.997,176.876 133.994 C 177.257 133.989,177.236 133.882,176.800 133.600 C 176.287 133.269,176.302 133.211,176.900 133.206 C 177.335 133.202,177.600 133.502,177.600 134.000 M187.929 136.267 C 187.772 137.080,187.187 137.305,186.449 136.838 C 185.724 136.380,186.231 135.600,187.253 135.600 C 187.790 135.600,188.016 135.822,187.929 136.267 M185.335 137.034 C 186.054 138.021,186.003 139.200,185.241 139.200 C 184.159 139.200,183.130 137.003,183.867 136.267 C 184.300 135.834,184.559 135.969,185.335 137.034 M253.483 138.095 C 253.387 138.593,253.305 138.280,253.301 137.400 C 253.296 136.520,253.375 136.113,253.475 136.495 C 253.575 136.878,253.579 137.598,253.483 138.095 M180.800 145.551 C 180.800 146.016,179.636 146.970,179.381 146.714 C 179.019 146.352,179.674 145.200,180.243 145.200 C 180.549 145.200,180.800 145.358,180.800 145.551 M177.654 160.661 C 177.277 161.309,177.223 161.254,177.212 160.220 C 177.203 159.359,177.320 159.160,177.641 159.481 C 177.958 159.798,177.961 160.132,177.654 160.661 M232.000 164.400 C 232.000 164.620,231.539 164.800,230.976 164.800 C 230.396 164.800,230.060 164.627,230.200 164.400 C 230.336 164.180,230.797 164.000,231.224 164.000 C 231.651 164.000,232.000 164.180,232.000 164.400 M222.000 175.400 C 222.000 175.730,221.831 176.000,221.624 176.000 C 221.119 176.000,220.758 175.375,221.078 175.056 C 221.528 174.605,222.000 174.781,222.000 175.400 M242.182 194.371 C 242.461 194.822,240.969 195.352,240.404 195.002 C 240.182 194.865,240.000 194.583,240.000 194.376 C 240.000 193.889,241.882 193.885,242.182 194.371 M157.754 194.975 C 157.633 195.291,157.279 195.452,156.967 195.332 C 156.132 195.012,156.277 194.400,157.187 194.400 C 157.708 194.400,157.900 194.595,157.754 194.975 M144.905 207.735 C 144.542 208.358,143.892 207.259,144.190 206.527 C 144.469 205.843,144.504 205.847,144.793 206.600 C 144.962 207.040,145.012 207.551,144.905 207.735 M251.600 214.229 C 251.600 215.760,251.486 216.035,250.900 215.914 C 250.071 215.742,250.055 213.954,250.874 213.026 C 251.606 212.198,251.600 212.188,251.600 214.229 M144.635 233.498 C 144.198 233.935,143.899 233.240,144.212 232.517 C 144.510 231.832,144.532 231.833,144.697 232.531 C 144.793 232.934,144.765 233.369,144.635 233.498 M244.412 232.886 C 244.405 233.263,244.021 233.775,243.557 234.023 C 242.936 234.356,242.832 234.592,243.162 234.922 C 243.903 235.663,245.413 233.902,244.857 232.944 C 244.470 232.278,244.423 232.272,244.412 232.886 M219.908 237.525 C 219.995 237.786,219.782 238.000,219.433 238.000 C 219.085 238.000,218.800 237.715,218.800 237.367 C 218.800 236.660,219.661 236.783,219.908 237.525 M171.722 237.498 C 169.479 237.569,165.699 237.570,163.322 237.499 C 160.945 237.428,162.780 237.370,167.400 237.369 C 172.020 237.369,173.965 237.427,171.722 237.498 M223.000 238.000 C 223.140 238.440,223.422 238.800,223.627 238.800 C 224.131 238.800,224.105 239.984,223.600 240.060 C 222.371 240.244,222.230 240.109,222.181 238.700 C 222.125 237.088,222.586 236.694,223.000 238.000 M151.653 239.707 C 151.176 240.184,149.851 239.765,150.175 239.240 C 150.299 239.039,150.773 238.972,151.227 239.091 C 151.777 239.235,151.919 239.441,151.653 239.707 M220.729 239.733 C 220.872 240.467,220.494 240.574,219.649 240.039 C 219.019 239.639,219.435 238.678,220.137 238.912 C 220.391 238.997,220.658 239.366,220.729 239.733 M161.200 239.600 C 160.410 240.111,157.316 240.111,157.000 239.600 C 156.845 239.349,157.694 239.202,159.276 239.206 C 161.053 239.210,161.622 239.327,161.200 239.600 M308.329 289.067 C 308.135 290.070,307.311 290.156,306.813 289.224 C 306.420 288.490,306.486 288.400,307.415 288.400 C 308.174 288.400,308.423 288.582,308.329 289.067 M95.600 294.533 C 95.600 295.452,95.413 295.867,95.000 295.867 C 94.587 295.867,94.400 295.452,94.400 294.533 C 94.400 293.615,94.587 293.200,95.000 293.200 C 95.413 293.200,95.600 293.615,95.600 294.533 M312.000 297.800 C 312.000 298.130,312.180 298.400,312.400 298.400 C 312.620 298.400,312.800 298.130,312.800 297.800 C 312.800 297.470,312.620 297.200,312.400 297.200 C 312.180 297.200,312.000 297.470,312.000 297.800 M176.800 302.400 C 176.800 303.280,176.620 304.000,176.400 304.000 C 175.958 304.000,175.862 302.425,176.243 301.433 C 176.636 300.409,176.800 300.695,176.800 302.400 M311.677 301.630 C 311.755 301.867,311.991 302.060,312.200 302.060 C 312.409 302.060,312.645 301.867,312.723 301.630 C 312.802 301.394,312.567 301.200,312.200 301.200 C 311.833 301.200,311.598 301.394,311.677 301.630 M305.200 304.624 C 305.200 305.212,304.346 305.413,303.870 304.937 C 303.508 304.575,304.405 303.556,304.845 303.828 C 305.040 303.949,305.200 304.307,305.200 304.624 M96.000 304.600 C 96.000 304.930,95.831 305.200,95.624 305.200 C 95.119 305.200,94.758 304.575,95.078 304.256 C 95.528 303.805,96.000 303.981,96.000 304.600 M297.934 306.750 C 298.115 308.024,297.528 308.528,296.629 307.871 C 296.113 307.493,295.984 307.081,296.185 306.447 C 296.553 305.289,297.756 305.498,297.934 306.750 M111.928 306.896 C 111.790 307.865,110.569 308.329,109.904 307.664 C 109.233 306.993,109.895 306.000,111.015 306.000 C 111.864 306.000,112.032 306.165,111.928 306.896 M291.000 310.367 C 291.000 311.296,290.089 311.313,289.596 310.392 C 289.184 309.622,289.231 309.549,290.069 309.668 C 290.581 309.741,291.000 310.055,291.000 310.367 M291.600 312.443 C 291.600 312.639,291.240 312.800,290.800 312.800 C 290.020 312.800,289.758 312.376,290.239 311.894 C 290.560 311.574,291.600 311.993,291.600 312.443 M104.400 313.400 C 104.400 313.733,104.756 314.000,105.200 314.000 C 106.154 314.000,106.261 313.386,105.367 313.043 C 104.473 312.700,104.400 312.727,104.400 313.400 M289.766 314.344 C 290.092 314.873,289.638 315.135,288.781 314.911 C 288.357 314.800,288.108 314.550,288.228 314.355 C 288.508 313.901,289.488 313.895,289.766 314.344 " stroke="none" fill="#0484fb" fill-rule="evenodd"></path><path id="path2" d="M136.863 79.200 C 135.266 80.727,133.416 80.794,131.362 79.400 C 130.527 78.833,129.349 78.412,128.644 78.427 C 127.459 78.453,127.442 78.475,128.300 78.888 C 129.173 79.309,129.565 80.400,128.843 80.400 C 128.234 80.400,128.004 81.558,128.404 82.609 C 128.829 83.728,131.507 83.693,132.825 82.552 C 133.301 82.141,133.563 82.123,133.916 82.476 C 134.269 82.829,134.559 82.780,135.122 82.271 C 135.530 81.902,136.082 81.600,136.350 81.600 C 136.617 81.600,137.294 81.142,137.853 80.583 L 138.870 79.566 199.857 79.566 L 260.845 79.566 261.587 80.483 C 262.259 81.314,262.687 81.406,266.137 81.460 C 268.232 81.492,270.138 81.638,270.373 81.783 C 271.027 82.187,270.881 81.552,270.129 80.722 C 269.256 79.757,269.775 79.282,271.800 79.193 C 275.105 79.047,275.536 79.157,276.078 80.286 C 276.852 81.896,279.070 82.448,280.024 81.269 C 280.725 80.404,280.793 80.399,284.178 80.941 C 286.260 81.275,287.710 81.345,287.850 81.120 C 289.046 79.184,270.747 77.592,268.086 79.400 C 266.078 80.765,264.372 80.702,262.661 79.200 L 261.294 78.000 199.707 78.000 L 138.119 78.000 136.863 79.200 M121.000 78.843 C 114.623 79.620,108.764 81.088,108.164 82.058 C 108.048 82.246,107.617 82.400,107.207 82.400 C 106.116 82.400,104.000 84.682,104.000 85.860 C 104.000 86.833,103.947 86.851,101.848 86.589 C 98.788 86.206,97.592 86.958,91.328 93.200 C 87.786 96.730,86.404 98.539,86.401 99.651 C 86.401 100.009,86.130 100.526,85.800 100.800 C 84.913 101.536,85.069 102.672,86.093 102.940 C 86.811 103.128,86.887 103.273,86.483 103.677 C 86.092 104.068,85.811 104.074,85.224 103.708 C 84.301 103.131,84.222 103.221,82.296 107.000 C 81.511 108.540,80.660 110.880,80.405 112.200 C 80.149 113.520,79.782 115.230,79.589 116.000 C 78.393 120.767,78.368 130.324,79.547 131.824 C 80.881 133.519,80.726 136.148,79.210 137.532 L 78.019 138.619 78.013 200.254 L 78.006 261.888 79.203 263.140 C 80.716 264.723,80.778 266.616,79.409 269.400 C 78.410 271.431,78.068 273.452,78.800 273.000 C 79.020 272.864,79.200 272.403,79.200 271.976 C 79.200 271.027,79.514 270.998,80.465 271.859 C 81.037 272.377,81.472 272.438,82.497 272.146 C 85.108 271.400,84.091 265.497,80.745 261.978 C 79.663 260.842,79.525 252.094,79.667 193.790 L 79.800 139.380 80.700 138.236 C 81.195 137.607,81.600 136.767,81.600 136.370 C 81.600 135.972,81.775 135.539,81.989 135.407 C 82.737 134.945,83.588 132.584,83.744 130.542 C 83.830 129.410,84.007 128.313,84.135 128.104 C 84.500 127.514,81.668 126.794,80.591 127.203 C 79.424 127.647,78.831 126.978,79.179 125.609 C 79.403 124.733,79.618 124.631,81.041 124.734 C 82.194 124.817,82.925 124.621,83.625 124.038 C 84.433 123.366,84.480 123.224,83.900 123.213 C 83.515 123.206,83.200 123.361,83.200 123.557 C 83.200 124.063,82.112 124.418,81.400 124.145 C 80.555 123.820,80.655 122.656,81.600 121.800 C 82.433 121.046,82.696 119.600,82.000 119.600 C 81.281 119.600,81.489 111.328,82.215 111.050 C 82.565 110.915,82.928 111.069,83.058 111.407 C 83.204 111.788,83.833 112.000,84.819 112.000 C 86.572 112.000,86.838 111.750,86.379 110.535 C 85.947 109.393,84.405 108.891,83.931 109.738 C 83.466 110.569,82.400 110.131,82.400 109.108 C 82.400 108.454,82.508 108.392,82.972 108.777 C 83.712 109.391,84.403 108.223,84.283 106.558 C 84.217 105.632,84.380 105.375,85.100 105.273 C 85.595 105.202,86.000 104.977,86.000 104.772 C 86.000 104.567,86.276 104.400,86.614 104.400 C 87.110 104.400,87.143 104.559,86.788 105.222 C 86.546 105.674,86.436 106.259,86.542 106.522 C 86.649 106.785,86.751 106.685,86.768 106.300 C 86.789 105.841,87.123 105.600,87.738 105.600 C 89.575 105.600,90.705 103.350,89.773 101.548 C 88.780 99.627,89.145 98.312,90.789 97.889 C 91.989 97.580,92.080 97.477,91.461 97.130 C 90.785 96.752,90.783 96.700,91.433 96.225 C 92.216 95.653,91.831 94.626,90.960 94.960 C 90.136 95.276,90.278 94.800,91.261 93.947 C 92.283 93.060,92.202 93.071,93.218 93.700 C 94.240 94.333,94.883 93.503,94.532 92.003 C 94.344 91.200,94.399 91.096,94.808 91.480 C 95.546 92.172,97.436 91.109,97.759 89.820 C 98.061 88.618,99.300 88.217,101.830 88.502 C 102.811 88.613,103.710 88.545,103.830 88.352 C 103.949 88.158,104.302 88.000,104.614 88.000 C 104.926 88.000,105.759 87.648,106.465 87.219 L 107.750 86.437 106.632 86.012 C 104.862 85.339,106.020 84.241,108.183 84.541 C 111.038 84.936,113.944 83.078,111.775 82.246 C 110.498 81.756,111.724 81.199,114.124 81.179 C 116.528 81.160,120.976 80.680,122.600 80.265 C 123.040 80.153,123.695 80.047,124.056 80.031 C 124.416 80.014,125.136 79.646,125.656 79.213 L 126.600 78.427 125.200 78.464 C 124.430 78.485,122.540 78.656,121.000 78.843 M288.800 81.824 C 288.800 82.683,290.574 84.000,291.730 84.000 C 294.278 84.000,296.142 87.255,294.284 88.460 C 293.526 88.951,294.352 90.000,295.487 89.987 C 297.180 89.968,298.451 88.896,297.452 88.330 C 296.848 87.988,296.810 87.840,297.252 87.559 C 298.072 87.040,298.800 87.129,298.800 87.750 C 298.800 88.053,299.368 88.414,300.062 88.552 C 300.756 88.691,301.949 89.449,302.713 90.236 C 303.675 91.225,304.346 91.603,304.891 91.460 C 305.541 91.290,305.638 91.407,305.445 92.127 C 305.316 92.607,305.208 93.218,305.205 93.484 C 305.202 93.751,304.809 94.333,304.332 94.778 C 302.745 96.256,306.898 99.175,309.518 98.423 C 311.265 97.922,312.418 100.680,311.128 102.274 C 310.470 103.088,311.482 104.400,312.768 104.400 C 314.204 104.400,316.240 105.405,315.602 105.799 C 315.351 105.954,315.181 106.738,315.225 107.541 C 315.269 108.343,315.123 109.450,314.900 110.000 C 314.096 111.984,315.087 112.803,316.778 111.553 C 318.170 110.524,318.802 110.827,318.795 112.524 C 318.787 114.794,320.075 122.963,320.646 124.260 C 321.382 125.934,321.345 126.675,320.500 127.173 C 319.898 127.528,319.882 127.639,320.388 127.971 C 320.712 128.183,320.837 128.496,320.667 128.667 C 320.496 128.837,320.231 128.781,320.078 128.542 C 319.618 127.823,318.172 127.554,317.053 127.980 C 315.642 128.516,315.544 131.771,316.865 134.206 C 317.341 135.083,317.926 136.162,318.165 136.605 C 318.404 137.048,319.003 137.812,319.497 138.302 L 320.393 139.193 320.379 199.950 C 320.366 259.332,320.348 260.723,319.598 261.402 C 319.176 261.784,318.436 262.840,317.955 263.748 C 317.473 264.657,316.837 265.850,316.542 266.400 C 314.880 269.495,316.339 272.704,319.200 272.246 C 321.967 271.804,321.790 275.336,318.995 276.347 C 316.542 277.234,315.407 282.135,317.532 282.669 C 319.516 283.167,319.397 286.345,317.371 286.949 C 314.299 287.865,313.303 288.800,315.400 288.800 C 315.969 288.800,316.400 288.569,316.400 288.264 C 316.400 287.701,318.264 287.621,319.115 288.148 C 319.756 288.544,320.096 286.836,321.248 277.453 C 321.796 272.985,321.419 268.980,320.364 268.077 C 319.055 266.956,319.302 263.790,320.800 262.475 L 322.000 261.422 322.000 199.770 L 322.000 138.119 320.800 136.863 C 319.223 135.213,319.165 133.072,320.638 130.918 C 321.807 129.207,321.797 120.985,320.620 116.600 C 320.325 115.500,319.885 113.520,319.642 112.200 C 319.400 110.880,318.841 109.312,318.401 108.716 C 317.960 108.120,317.600 107.348,317.600 107.000 C 317.600 106.114,316.272 103.626,315.039 102.200 C 314.467 101.540,313.884 100.370,313.741 99.600 C 313.362 97.551,304.293 88.584,300.698 86.703 C 299.872 86.271,299.096 85.756,298.974 85.559 C 298.540 84.856,297.292 85.204,297.060 86.093 C 296.872 86.811,296.727 86.887,296.323 86.483 C 295.937 86.097,295.928 85.808,296.282 85.240 C 296.738 84.510,295.995 83.846,292.431 81.795 C 290.812 80.863,288.800 80.880,288.800 81.824 M287.817 84.372 C 287.521 84.851,288.274 85.325,288.807 84.996 C 289.254 84.719,288.960 84.000,288.400 84.000 C 288.206 84.000,287.944 84.168,287.817 84.372 M289.900 86.557 C 289.515 86.849,289.206 87.338,289.213 87.644 C 289.222 88.050,289.369 88.011,289.757 87.500 C 290.049 87.115,290.808 86.797,291.444 86.794 C 292.337 86.789,292.464 86.700,292.000 86.400 C 291.203 85.885,290.740 85.919,289.900 86.557 M102.677 92.303 C 101.655 92.535,101.934 94.200,102.995 94.200 C 103.451 94.200,103.850 93.884,103.932 93.458 C 104.110 92.534,103.624 92.087,102.677 92.303 M307.600 94.720 C 307.600 95.662,306.847 96.393,306.151 96.126 C 305.431 95.850,305.454 95.403,306.229 94.629 C 307.060 93.797,307.600 93.833,307.600 94.720 M296.255 95.000 C 296.089 95.433,296.299 95.600,297.013 95.600 C 297.624 95.600,298.000 95.371,298.000 95.000 C 298.000 94.670,297.659 94.400,297.243 94.400 C 296.826 94.400,296.382 94.670,296.255 95.000 M312.000 105.800 C 312.000 106.350,312.180 106.800,312.400 106.800 C 312.620 106.800,312.800 106.350,312.800 105.800 C 312.800 105.250,312.620 104.800,312.400 104.800 C 312.180 104.800,312.000 105.250,312.000 105.800 M91.984 110.219 C 91.353 110.980,91.819 112.093,92.699 111.925 C 93.578 111.758,93.849 110.181,93.050 109.875 C 92.725 109.750,92.245 109.905,91.984 110.219 M215.817 127.172 C 215.672 127.407,214.658 127.600,213.564 127.600 C 212.165 127.600,211.507 127.778,211.345 128.200 C 211.174 128.644,210.470 128.800,208.637 128.800 C 207.275 128.800,205.989 128.950,205.780 129.133 C 205.571 129.315,204.625 129.686,203.679 129.955 C 202.732 130.224,201.858 130.705,201.736 131.022 C 201.614 131.340,201.196 131.600,200.806 131.600 C 200.417 131.600,199.874 131.870,199.600 132.200 C 199.326 132.530,198.752 132.800,198.325 132.800 C 196.764 132.800,194.008 134.816,193.991 135.970 C 193.986 136.316,193.401 136.884,192.691 137.232 C 191.981 137.579,191.165 138.344,190.878 138.932 C 190.338 140.039,189.022 140.376,188.660 139.500 C 188.547 139.225,188.543 139.540,188.651 140.200 C 188.814 141.190,188.599 141.633,187.424 142.732 C 186.641 143.465,186.000 144.298,186.000 144.584 C 186.000 144.869,185.730 145.326,185.400 145.600 C 185.070 145.874,184.800 146.417,184.800 146.806 C 184.800 147.196,184.525 147.620,184.189 147.749 C 183.518 148.006,182.000 151.234,182.000 152.405 C 182.000 152.811,181.730 153.413,181.400 153.743 C 181.070 154.073,180.800 154.950,180.800 155.691 C 180.800 156.433,180.645 157.211,180.455 157.420 C 178.593 159.468,178.217 164.204,178.384 183.499 C 178.508 197.731,178.501 197.784,176.493 198.038 C 174.570 198.281,155.748 198.126,152.999 197.844 C 150.367 197.574,150.338 197.582,148.974 198.946 L 147.600 200.320 147.600 213.360 L 147.600 226.400 145.967 226.400 C 143.949 226.400,143.998 227.303,146.032 227.600 C 147.757 227.852,148.220 229.877,146.824 231.072 C 145.968 231.806,145.768 233.014,146.351 233.934 C 146.606 234.336,146.745 234.253,146.918 233.594 C 147.178 232.598,148.000 232.877,148.000 233.962 C 148.000 234.789,149.077 235.854,150.121 236.059 C 151.271 236.284,151.063 236.981,149.777 237.208 C 148.975 237.351,148.764 237.520,149.115 237.741 C 150.061 238.337,152.979 237.619,152.131 236.999 C 151.494 236.533,151.610 236.448,153.208 236.211 C 156.311 235.752,177.593 236.139,177.915 236.661 C 178.354 237.372,177.799 319.561,177.352 320.008 C 176.450 320.910,139.256 320.592,138.279 319.674 C 137.790 319.215,136.628 318.718,135.696 318.569 C 134.757 318.419,134.000 318.076,134.000 317.801 C 134.000 317.310,129.806 316.262,128.747 316.487 C 128.446 316.552,128.157 316.170,128.076 315.600 C 127.851 314.036,127.200 313.654,127.200 315.087 C 127.200 315.772,127.410 316.403,127.667 316.489 C 127.923 316.574,128.128 317.264,128.121 318.022 C 128.115 318.780,128.280 319.618,128.490 319.884 C 128.951 320.469,127.473 320.929,125.764 320.731 C 124.667 320.604,124.636 320.536,124.744 318.529 C 124.839 316.779,124.728 316.390,124.028 316.015 C 123.002 315.466,122.930 316.015,123.844 317.411 C 125.164 319.426,123.325 320.436,121.627 318.629 C 120.709 317.652,119.600 317.639,119.600 318.605 C 119.600 319.011,118.706 319.077,115.500 318.909 C 111.044 318.674,110.822 318.618,111.527 317.913 C 112.184 317.256,112.119 316.131,111.407 315.858 C 111.069 315.728,110.915 315.365,111.050 315.015 C 111.216 314.582,111.037 314.400,110.443 314.400 C 109.807 314.400,109.600 314.650,109.600 315.414 C 109.600 316.314,109.507 316.378,108.777 315.987 C 108.324 315.745,107.424 315.663,106.777 315.805 C 105.365 316.115,105.155 315.245,106.353 314.047 C 106.808 313.592,106.981 313.092,106.790 312.783 C 106.616 312.502,106.569 312.025,106.686 311.721 C 107.005 310.888,105.617 309.600,104.400 309.600 C 103.206 309.600,101.440 311.191,102.300 311.492 C 103.108 311.774,102.873 312.800,102.000 312.800 C 101.560 312.800,101.200 312.620,101.200 312.400 C 101.200 312.180,100.770 312.000,100.244 312.000 C 98.842 312.000,97.251 310.608,97.900 309.948 C 98.435 309.404,98.553 308.065,98.157 307.033 C 97.778 306.046,96.519 306.270,96.242 307.373 C 95.770 309.255,93.605 309.176,93.594 307.276 C 93.590 306.523,93.485 306.362,93.245 306.741 C 92.985 307.151,92.707 307.178,92.098 306.852 C 90.991 306.260,90.687 305.293,91.520 305.010 C 92.817 304.571,93.744 302.835,93.256 301.762 C 92.645 300.422,90.942 300.450,90.322 301.810 C 89.711 303.152,89.114 302.880,88.479 300.973 C 88.192 300.113,87.697 299.262,87.379 299.084 C 87.061 298.906,86.800 298.302,86.800 297.742 C 86.800 297.182,86.466 296.246,86.057 295.662 C 85.648 295.078,85.198 294.105,85.057 293.500 C 84.916 292.895,84.689 291.950,84.553 291.400 C 84.261 290.216,84.961 290.060,86.069 291.062 C 87.126 292.019,87.067 290.898,85.960 289.023 C 85.009 287.410,84.770 287.339,83.365 288.259 C 81.694 289.354,81.045 287.249,80.238 278.116 C 80.176 277.410,79.941 276.600,79.716 276.316 C 79.491 276.032,79.117 275.260,78.885 274.600 C 78.251 272.797,78.292 274.435,79.010 279.600 C 80.173 287.972,80.729 290.321,81.857 291.631 C 82.155 291.979,82.400 292.449,82.400 292.676 C 82.400 293.357,84.748 298.321,85.203 298.602 C 85.436 298.746,86.014 299.704,86.489 300.731 C 88.400 304.868,96.093 312.157,101.181 314.652 C 102.820 315.456,105.115 316.723,106.280 317.469 C 108.900 319.145,112.252 319.956,120.800 320.983 C 128.275 321.882,130.359 321.810,132.000 320.600 C 133.926 319.179,135.996 319.243,137.436 320.769 L 138.539 321.938 157.829 321.981 C 178.735 322.027,177.658 322.133,178.853 319.901 C 179.806 318.120,179.816 237.016,178.863 236.063 C 177.679 234.879,175.803 234.739,162.900 234.876 C 156.465 234.944,151.200 234.854,151.200 234.676 C 151.200 234.498,151.065 234.435,150.900 234.536 C 149.870 235.164,147.976 232.490,148.331 230.909 C 148.530 230.025,148.702 222.952,148.715 215.191 L 148.737 201.081 149.708 200.110 L 150.679 199.140 163.716 199.183 C 177.793 199.230,178.631 199.158,179.047 197.860 C 179.199 197.387,179.347 189.980,179.375 181.400 C 179.426 166.514,179.791 160.653,180.744 159.446 C 180.937 159.201,181.218 158.323,181.367 157.495 C 181.516 156.667,182.170 154.805,182.819 153.357 C 183.469 151.910,184.000 150.515,184.000 150.257 C 184.000 150.000,184.630 148.854,185.400 147.710 C 186.170 146.567,186.800 145.394,186.800 145.104 C 186.800 144.814,187.749 143.592,188.909 142.388 C 190.069 141.185,191.333 139.705,191.718 139.100 C 192.103 138.495,192.761 138.000,193.181 138.000 C 193.992 138.000,194.518 137.555,195.800 135.784 C 196.302 135.091,198.166 133.940,200.800 132.696 C 206.843 129.844,207.901 129.493,210.800 129.378 C 212.230 129.321,214.120 128.962,215.000 128.580 C 217.450 127.516,237.838 127.518,240.200 128.583 C 241.335 129.094,242.637 129.283,244.680 129.231 C 251.010 129.072,252.700 132.662,251.222 143.123 C 251.014 144.596,250.766 148.919,250.670 152.731 C 250.557 157.277,250.336 159.824,250.029 160.131 C 249.707 160.453,246.720 160.644,240.488 160.740 C 232.026 160.870,231.295 160.940,229.608 161.783 C 228.614 162.279,227.272 162.813,226.627 162.969 C 225.065 163.346,221.858 166.854,220.566 169.600 C 219.996 170.810,219.366 172.113,219.165 172.495 C 218.964 172.877,218.800 173.563,218.800 174.021 C 218.800 174.478,218.635 175.160,218.434 175.536 C 217.665 176.973,217.759 198.035,218.537 198.604 C 219.070 198.993,222.563 199.115,233.377 199.121 C 250.287 199.130,250.612 199.218,249.635 203.529 C 248.882 206.856,247.998 212.560,247.999 214.093 C 248.000 214.913,247.823 216.803,247.606 218.293 C 246.715 224.422,246.285 227.911,246.180 229.853 C 245.966 233.818,244.701 235.216,241.600 234.916 C 234.936 234.274,220.067 234.594,218.994 235.403 L 217.935 236.200 217.982 277.991 C 218.032 323.885,217.882 321.236,220.473 321.755 C 221.203 321.901,230.830 322.005,241.868 321.985 L 261.935 321.948 263.164 320.774 C 264.758 319.251,266.720 319.193,268.582 320.614 C 269.484 321.302,270.600 321.691,272.056 321.826 C 274.186 322.024,274.191 322.022,272.800 321.505 C 271.422 320.993,271.402 320.953,271.525 318.932 C 271.594 317.788,271.463 316.763,271.229 316.618 C 270.558 316.204,266.000 317.240,266.000 317.808 C 266.000 318.084,265.325 318.436,264.500 318.589 C 263.675 318.742,262.427 319.302,261.727 319.834 L 260.453 320.800 241.850 320.800 C 230.139 320.800,223.158 320.655,223.005 320.408 C 222.853 320.162,222.468 320.199,221.969 320.508 C 221.330 320.904,221.110 320.894,220.838 320.457 C 220.602 320.079,220.417 320.049,220.226 320.357 C 219.831 320.998,219.200 320.901,219.200 320.200 C 219.200 319.870,219.020 319.600,218.800 319.600 C 218.327 319.600,218.227 236.407,218.700 236.388 C 233.847 235.790,242.627 236.031,242.242 237.034 C 242.122 237.348,242.414 237.791,242.915 238.057 C 243.402 238.316,244.035 238.858,244.323 239.263 C 245.054 240.294,246.800 240.249,246.800 239.200 C 246.800 238.585,246.533 238.400,245.646 238.400 C 243.784 238.400,242.775 236.557,244.437 236.192 C 245.673 235.920,245.757 235.811,246.162 233.948 C 246.298 233.325,246.740 232.804,247.247 232.672 C 247.958 232.486,248.056 232.258,247.828 231.324 C 247.173 228.647,247.150 225.609,247.759 222.361 C 248.111 220.478,248.400 218.313,248.400 217.549 C 248.400 216.785,248.567 215.989,248.772 215.780 C 248.976 215.571,249.226 213.870,249.326 212.000 C 249.656 205.868,250.520 203.067,252.140 202.873 C 253.192 202.748,253.200 202.767,253.200 205.373 C 253.200 206.818,253.374 208.000,253.587 208.000 C 254.220 208.000,253.602 201.501,252.903 200.800 C 252.448 200.345,252.259 200.320,252.119 200.700 C 251.804 201.548,250.870 201.254,250.322 200.134 C 249.329 198.106,247.240 197.435,243.688 198.003 C 241.551 198.345,237.891 198.427,231.800 198.268 C 226.960 198.142,221.965 198.021,220.700 197.999 L 218.400 197.958 218.400 189.828 C 218.400 183.357,218.514 181.603,218.959 181.234 C 219.435 180.839,219.421 180.469,218.861 178.718 C 218.353 177.132,218.317 176.628,218.702 176.499 C 218.976 176.408,219.200 175.987,219.200 175.565 C 219.200 175.142,219.650 173.863,220.200 172.723 C 220.750 171.583,221.200 170.346,221.200 169.974 C 221.200 169.602,221.470 169.074,221.800 168.800 C 222.130 168.526,222.400 168.077,222.400 167.801 C 222.400 167.246,224.144 166.800,226.317 166.800 C 227.096 166.800,227.607 166.674,227.453 166.519 C 227.298 166.365,226.534 166.281,225.754 166.334 C 224.248 166.435,223.902 165.456,225.200 164.768 C 228.794 162.865,230.686 162.255,233.149 162.204 C 234.607 162.175,236.307 161.936,236.926 161.675 C 237.629 161.379,240.410 161.195,244.326 161.187 C 253.069 161.170,252.152 162.863,252.398 146.285 C 252.661 128.445,252.761 128.800,247.505 128.800 C 245.865 128.800,244.839 128.597,244.381 128.182 C 243.227 127.138,216.424 126.190,215.817 127.172 M254.284 127.850 C 253.801 128.332,253.970 129.477,254.600 130.000 C 255.402 130.666,256.486 129.805,256.319 128.635 C 256.201 127.807,254.848 127.285,254.284 127.850 M196.800 128.376 C 196.800 128.583,196.964 128.854,197.164 128.978 C 197.681 129.297,198.840 128.788,198.574 128.358 C 198.280 127.882,196.800 127.897,196.800 128.376 M179.850 128.719 C 179.415 129.424,180.326 130.105,181.357 129.847 C 182.820 129.479,182.720 128.400,181.224 128.400 C 180.577 128.400,179.958 128.544,179.850 128.719 M194.000 132.824 C 194.000 133.057,193.820 133.136,193.600 133.000 C 193.380 132.864,193.200 132.943,193.200 133.176 C 193.200 133.788,193.822 133.697,194.400 133.000 C 194.744 132.585,194.759 132.400,194.449 132.400 C 194.202 132.400,194.000 132.591,194.000 132.824 M176.800 133.600 C 177.236 133.882,177.257 133.989,176.876 133.994 C 176.588 133.997,176.464 134.180,176.600 134.400 C 177.018 135.076,177.600 134.844,177.600 134.000 C 177.600 133.502,177.335 133.202,176.900 133.206 C 176.302 133.211,176.287 133.269,176.800 133.600 M186.172 136.045 C 185.872 136.531,186.758 137.264,187.400 137.060 C 187.620 136.991,187.858 136.634,187.929 136.267 C 188.078 135.501,186.622 135.317,186.172 136.045 M183.867 136.267 C 183.130 137.003,184.159 139.200,185.241 139.200 C 186.003 139.200,186.054 138.021,185.335 137.034 C 184.559 135.969,184.300 135.834,183.867 136.267 M253.301 137.400 C 253.305 138.280,253.387 138.593,253.483 138.095 C 253.579 137.598,253.575 136.878,253.475 136.495 C 253.375 136.113,253.296 136.520,253.301 137.400 M179.433 145.857 C 179.295 146.219,179.271 146.604,179.381 146.714 C 179.636 146.970,180.800 146.016,180.800 145.551 C 180.800 144.930,179.694 145.178,179.433 145.857 M177.212 160.220 C 177.223 161.254,177.277 161.309,177.654 160.661 C 177.961 160.132,177.958 159.798,177.641 159.481 C 177.320 159.160,177.203 159.359,177.212 160.220 M230.200 164.400 C 230.060 164.627,230.396 164.800,230.976 164.800 C 231.539 164.800,232.000 164.620,232.000 164.400 C 232.000 164.180,231.651 164.000,231.224 164.000 C 230.797 164.000,230.336 164.180,230.200 164.400 M221.078 175.056 C 220.758 175.375,221.119 176.000,221.624 176.000 C 221.831 176.000,222.000 175.730,222.000 175.400 C 222.000 174.781,221.528 174.605,221.078 175.056 M240.000 194.376 C 240.000 194.583,240.182 194.865,240.404 195.002 C 240.969 195.352,242.461 194.822,242.182 194.371 C 241.882 193.885,240.000 193.889,240.000 194.376 M156.400 194.757 C 156.400 195.389,157.526 195.570,157.754 194.975 C 157.900 194.595,157.708 194.400,157.187 194.400 C 156.754 194.400,156.400 194.561,156.400 194.757 M144.190 206.527 C 144.027 206.927,144.077 207.437,144.302 207.662 C 144.864 208.224,145.166 207.572,144.793 206.600 C 144.504 205.847,144.469 205.843,144.190 206.527 M250.874 213.026 C 250.055 213.954,250.071 215.742,250.900 215.914 C 251.486 216.035,251.600 215.760,251.600 214.229 C 251.600 212.188,251.606 212.198,250.874 213.026 M144.212 232.517 C 144.041 232.912,144.013 233.347,144.151 233.484 C 144.557 233.890,144.884 233.320,144.697 232.531 C 144.532 231.833,144.510 231.832,144.212 232.517 M218.800 237.367 C 218.800 237.715,219.085 238.000,219.433 238.000 C 220.140 238.000,220.017 237.139,219.275 236.892 C 219.014 236.805,218.800 237.018,218.800 237.367 M163.322 237.499 C 165.699 237.570,169.479 237.569,171.722 237.498 C 173.965 237.427,172.020 237.369,167.400 237.369 C 162.780 237.370,160.945 237.428,163.322 237.499 M222.181 238.700 C 222.230 240.109,222.371 240.244,223.600 240.060 C 224.105 239.984,224.131 238.800,223.627 238.800 C 223.422 238.800,223.140 238.440,223.000 238.000 C 222.586 236.694,222.125 237.088,222.181 238.700 M150.175 239.240 C 149.851 239.765,151.176 240.184,151.653 239.707 C 151.919 239.441,151.777 239.235,151.227 239.091 C 150.773 238.972,150.299 239.039,150.175 239.240 M219.385 239.224 C 219.227 239.480,219.346 239.847,219.649 240.039 C 220.494 240.574,220.872 240.467,220.729 239.733 C 220.568 238.903,219.770 238.601,219.385 239.224 M157.000 239.600 C 157.316 240.111,160.410 240.111,161.200 239.600 C 161.622 239.327,161.053 239.210,159.276 239.206 C 157.694 239.202,156.845 239.349,157.000 239.600 M306.813 289.224 C 307.311 290.156,308.135 290.070,308.329 289.067 C 308.423 288.582,308.174 288.400,307.415 288.400 C 306.486 288.400,306.420 288.490,306.813 289.224 M316.660 290.189 C 315.929 291.173,314.926 293.726,314.649 295.307 C 314.620 295.475,313.883 295.250,313.013 294.807 C 309.856 293.197,308.519 295.186,310.400 298.696 C 311.656 301.039,311.374 302.800,309.744 302.800 C 309.106 302.800,308.658 303.108,308.434 303.700 C 308.009 304.822,308.200 305.064,308.990 304.408 C 309.500 303.985,309.598 304.025,309.587 304.651 C 309.561 306.223,307.677 307.496,307.000 306.400 C 306.475 305.550,305.946 306.060,306.066 307.300 C 306.182 308.492,306.102 308.594,305.109 308.526 C 304.280 308.470,303.732 308.823,302.779 310.026 C 301.455 311.698,298.823 312.263,297.680 311.120 C 297.307 310.747,297.093 310.747,296.720 311.120 C 296.456 311.384,295.927 311.600,295.544 311.600 C 294.532 311.600,294.170 312.442,294.939 313.005 C 295.875 313.689,295.760 314.000,294.573 314.000 C 293.728 314.000,293.591 314.142,293.800 314.800 C 294.034 315.538,293.872 315.600,291.716 315.600 C 289.060 315.600,287.473 316.684,288.434 317.841 C 289.129 318.679,289.064 318.697,283.651 319.195 C 280.933 319.445,278.415 319.809,278.055 320.003 C 277.695 320.197,276.725 320.464,275.900 320.596 C 275.075 320.728,274.400 321.031,274.400 321.269 C 274.400 321.554,274.977 321.610,276.085 321.433 C 277.012 321.285,279.397 320.996,281.385 320.792 C 285.877 320.331,287.214 320.002,290.039 318.662 C 291.270 318.078,292.502 317.600,292.777 317.600 C 293.911 317.600,295.576 315.936,295.837 314.542 L 296.104 313.118 298.552 313.379 C 303.110 313.864,312.711 304.534,314.275 298.100 C 314.433 297.448,314.315 297.200,313.847 297.200 C 313.491 297.200,313.200 296.930,313.200 296.600 C 313.200 295.913,314.434 295.794,315.061 296.421 C 315.519 296.879,316.078 296.174,317.861 292.884 C 319.999 288.937,319.095 286.910,316.660 290.189 M94.400 294.533 C 94.400 295.452,94.587 295.867,95.000 295.867 C 95.413 295.867,95.600 295.452,95.600 294.533 C 95.600 293.615,95.413 293.200,95.000 293.200 C 94.587 293.200,94.400 293.615,94.400 294.533 M312.800 297.800 C 312.800 298.130,312.620 298.400,312.400 298.400 C 312.180 298.400,312.000 298.130,312.000 297.800 C 312.000 297.470,312.180 297.200,312.400 297.200 C 312.620 297.200,312.800 297.470,312.800 297.800 M176.243 301.433 C 175.862 302.425,175.958 304.000,176.400 304.000 C 176.620 304.000,176.800 303.280,176.800 302.400 C 176.800 300.695,176.636 300.409,176.243 301.433 M312.723 301.630 C 312.645 301.867,312.409 302.060,312.200 302.060 C 311.991 302.060,311.755 301.867,311.677 301.630 C 311.598 301.394,311.833 301.200,312.200 301.200 C 312.567 301.200,312.802 301.394,312.723 301.630 M304.049 304.141 C 303.563 304.727,303.839 305.200,304.667 305.200 C 305.263 305.200,305.397 304.169,304.845 303.828 C 304.650 303.707,304.292 303.848,304.049 304.141 M95.078 304.256 C 94.758 304.575,95.119 305.200,95.624 305.200 C 95.831 305.200,96.000 304.930,96.000 304.600 C 96.000 303.981,95.528 303.805,95.078 304.256 M296.185 306.447 C 295.984 307.081,296.113 307.493,296.629 307.871 C 297.528 308.528,298.115 308.024,297.934 306.750 C 297.756 305.498,296.553 305.289,296.185 306.447 M109.734 306.627 C 109.602 306.972,109.679 307.439,109.904 307.664 C 110.569 308.329,111.790 307.865,111.928 306.896 C 112.082 305.812,110.138 305.574,109.734 306.627 M289.596 310.392 C 290.089 311.313,291.000 311.296,291.000 310.367 C 291.000 310.055,290.581 309.741,290.069 309.668 C 289.231 309.549,289.184 309.622,289.596 310.392 M290.239 311.894 C 289.758 312.376,290.020 312.800,290.800 312.800 C 291.240 312.800,291.600 312.639,291.600 312.443 C 291.600 311.993,290.560 311.574,290.239 311.894 M105.367 313.043 C 106.261 313.386,106.154 314.000,105.200 314.000 C 104.756 314.000,104.400 313.733,104.400 313.400 C 104.400 312.727,104.473 312.700,105.367 313.043 M104.000 314.224 C 104.000 314.541,103.820 314.800,103.600 314.800 C 103.380 314.800,103.200 314.429,103.200 313.976 C 103.200 313.523,103.380 313.264,103.600 313.400 C 103.820 313.536,104.000 313.907,104.000 314.224 M288.228 314.355 C 288.108 314.550,288.357 314.800,288.781 314.911 C 289.638 315.135,290.092 314.873,289.766 314.344 C 289.488 313.895,288.508 313.901,288.228 314.355 " stroke="none" fill="#077af4" fill-rule="evenodd"></path><path id="path3" d="M0.000 200.000 L 0.000 400.000 200.000 400.000 L 400.000 400.000 400.000 200.000 L 400.000 0.000 200.000 0.000 L 0.000 0.000 0.000 200.000 M273.200 77.261 C 274.630 77.496,277.780 77.829,280.200 78.000 C 284.894 78.331,288.317 78.957,288.964 79.604 C 289.182 79.822,289.729 80.000,290.180 80.000 C 291.243 80.000,295.225 81.509,296.002 82.207 C 296.333 82.503,297.863 83.372,299.402 84.136 C 300.941 84.900,302.729 86.082,303.375 86.763 C 304.021 87.443,304.785 88.000,305.074 88.000 C 305.727 88.000,312.000 94.415,312.000 95.083 C 312.000 95.352,312.354 95.761,312.787 95.993 C 313.221 96.225,314.064 97.266,314.663 98.307 C 315.261 99.348,316.077 100.629,316.475 101.154 C 316.874 101.679,317.200 102.371,317.200 102.692 C 317.200 103.014,317.528 103.754,317.928 104.338 C 318.832 105.655,320.000 108.754,320.000 109.833 C 320.000 110.277,320.207 110.847,320.460 111.100 C 321.097 111.737,321.607 114.614,322.001 119.800 C 322.186 122.220,322.520 124.911,322.744 125.780 C 323.329 128.046,323.327 269.678,322.742 273.200 C 322.505 274.630,322.167 277.780,321.992 280.200 C 321.621 285.332,321.107 288.253,320.460 288.900 C 320.207 289.153,320.000 289.723,320.000 290.167 C 320.000 291.313,318.812 294.355,317.725 295.993 C 317.216 296.759,316.800 297.502,316.800 297.644 C 316.800 298.145,313.975 302.613,312.994 303.664 C 312.447 304.249,312.000 304.906,312.000 305.124 C 312.000 305.794,306.413 311.542,305.480 311.832 C 304.996 311.982,303.839 312.801,302.909 313.652 C 301.979 314.503,300.972 315.200,300.671 315.200 C 300.370 315.200,299.807 315.550,299.421 315.977 C 299.034 316.405,298.153 316.878,297.464 317.030 C 296.775 317.181,296.029 317.541,295.806 317.829 C 295.316 318.460,291.328 320.000,290.180 320.000 C 289.729 320.000,289.153 320.207,288.900 320.460 C 288.274 321.086,285.428 321.605,280.400 322.011 C 278.090 322.198,275.120 322.534,273.800 322.758 C 270.422 323.331,130.908 323.316,127.042 322.741 C 125.479 322.509,122.220 322.174,119.800 321.997 C 114.659 321.620,111.745 321.105,111.100 320.460 C 110.847 320.207,110.271 319.997,109.820 319.994 C 108.633 319.986,105.514 318.841,104.715 318.120 C 104.338 317.781,102.628 316.824,100.915 315.995 C 99.202 315.166,97.260 313.953,96.600 313.299 C 95.940 312.646,95.000 311.986,94.511 311.832 C 93.629 311.555,88.004 305.708,88.001 305.066 C 88.001 304.882,87.451 304.149,86.780 303.438 C 85.535 302.117,85.361 301.845,83.297 297.985 C 82.646 296.767,81.912 295.417,81.667 294.985 C 80.857 293.561,80.000 291.117,80.000 290.231 C 80.000 289.752,79.793 289.153,79.540 288.900 C 78.923 288.283,78.399 285.447,78.007 280.600 C 77.829 278.400,77.491 275.430,77.256 274.000 C 76.695 270.591,76.675 131.360,77.234 127.600 C 77.447 126.170,77.725 122.840,77.852 120.200 C 77.980 117.560,78.245 115.229,78.442 115.020 C 78.639 114.811,78.800 114.080,78.800 113.396 C 78.800 112.713,79.064 111.804,79.387 111.376 C 79.710 110.949,79.980 110.246,79.987 109.813 C 80.004 108.765,81.176 105.647,82.021 104.400 C 82.394 103.850,83.334 102.140,84.109 100.600 C 84.884 99.060,86.072 97.260,86.748 96.600 C 87.424 95.940,87.983 95.246,87.989 95.059 C 88.011 94.374,94.117 88.000,94.750 88.000 C 95.109 88.000,95.937 87.434,96.589 86.743 C 97.242 86.052,98.411 85.224,99.188 84.903 C 99.965 84.583,100.870 84.090,101.200 83.807 C 101.530 83.525,102.224 83.165,102.743 83.007 C 103.261 82.848,104.016 82.436,104.420 82.090 C 105.331 81.310,108.715 80.001,109.820 80.000 C 110.271 80.000,110.847 79.793,111.100 79.540 C 111.721 78.919,114.541 78.400,119.600 77.975 C 121.910 77.781,124.790 77.466,126.000 77.274 C 129.333 76.745,269.999 76.733,273.200 77.261 " stroke="none" fill="#040404" fill-rule="evenodd"></path><path id="path4" d="M126.000 77.274 C 124.790 77.466,121.910 77.781,119.600 77.975 C 114.541 78.400,111.721 78.919,111.100 79.540 C 110.847 79.793,110.271 80.000,109.820 80.000 C 108.715 80.001,105.331 81.310,104.420 82.090 C 104.016 82.436,103.261 82.848,102.743 83.007 C 102.224 83.165,101.530 83.525,101.200 83.807 C 100.870 84.090,99.965 84.583,99.188 84.903 C 98.411 85.224,97.242 86.052,96.589 86.743 C 95.937 87.434,95.109 88.000,94.750 88.000 C 94.117 88.000,88.011 94.374,87.989 95.059 C 87.983 95.246,87.424 95.940,86.748 96.600 C 86.072 97.260,84.884 99.060,84.109 100.600 C 83.334 102.140,82.394 103.850,82.021 104.400 C 81.176 105.647,80.004 108.765,79.987 109.813 C 79.980 110.246,79.710 110.949,79.387 111.376 C 79.064 111.804,78.800 112.713,78.800 113.396 C 78.800 114.080,78.639 114.811,78.442 115.020 C 78.245 115.229,77.980 117.560,77.852 120.200 C 77.725 122.840,77.447 126.170,77.234 127.600 C 76.675 131.360,76.695 270.591,77.256 274.000 C 77.491 275.430,77.829 278.400,78.007 280.600 C 78.399 285.447,78.923 288.283,79.540 288.900 C 79.793 289.153,80.000 289.752,80.000 290.231 C 80.000 291.117,80.857 293.561,81.667 294.985 C 81.912 295.417,82.646 296.767,83.297 297.985 C 85.361 301.845,85.535 302.117,86.780 303.438 C 87.451 304.149,88.001 304.882,88.001 305.066 C 88.004 305.708,93.629 311.555,94.511 311.832 C 95.000 311.986,95.940 312.646,96.600 313.299 C 97.260 313.953,99.202 315.166,100.915 315.995 C 102.628 316.824,104.338 317.781,104.715 318.120 C 105.514 318.841,108.633 319.986,109.820 319.994 C 110.271 319.997,110.847 320.207,111.100 320.460 C 111.745 321.105,114.659 321.620,119.800 321.997 C 122.220 322.174,125.479 322.509,127.042 322.741 C 130.908 323.316,270.422 323.331,273.800 322.758 C 275.120 322.534,278.090 322.198,280.400 322.011 C 285.428 321.605,288.274 321.086,288.900 320.460 C 289.153 320.207,289.729 320.000,290.180 320.000 C 291.328 320.000,295.316 318.460,295.806 317.829 C 296.029 317.541,296.775 317.181,297.464 317.030 C 298.153 316.878,299.034 316.405,299.421 315.977 C 299.807 315.550,300.370 315.200,300.671 315.200 C 300.972 315.200,301.979 314.503,302.909 313.652 C 303.839 312.801,304.996 311.982,305.480 311.832 C 306.413 311.542,312.000 305.794,312.000 305.124 C 312.000 304.906,312.447 304.249,312.994 303.664 C 313.975 302.613,316.800 298.145,316.800 297.644 C 316.800 297.502,317.216 296.759,317.725 295.993 C 318.812 294.355,320.000 291.313,320.000 290.167 C 320.000 289.723,320.207 289.153,320.460 288.900 C 321.107 288.253,321.621 285.332,321.992 280.200 C 322.167 277.780,322.505 274.630,322.742 273.200 C 323.327 269.678,323.329 128.046,322.744 125.780 C 322.520 124.911,322.186 122.220,322.001 119.800 C 321.607 114.614,321.097 111.737,320.460 111.100 C 320.207 110.847,320.000 110.277,320.000 109.833 C 320.000 108.754,318.832 105.655,317.928 104.338 C 317.528 103.754,317.200 103.014,317.200 102.692 C 317.200 102.371,316.874 101.679,316.475 101.154 C 316.077 100.629,315.261 99.348,314.663 98.307 C 314.064 97.266,313.221 96.225,312.787 95.993 C 312.354 95.761,312.000 95.352,312.000 95.083 C 312.000 94.415,305.727 88.000,305.074 88.000 C 304.785 88.000,304.021 87.443,303.375 86.763 C 302.729 86.082,300.941 84.900,299.402 84.136 C 297.863 83.372,296.333 82.503,296.002 82.207 C 295.225 81.509,291.243 80.000,290.180 80.000 C 289.729 80.000,289.182 79.822,288.964 79.604 C 288.317 78.957,284.894 78.331,280.200 78.000 C 277.780 77.829,274.630 77.496,273.200 77.261 C 269.999 76.733,129.333 76.745,126.000 77.274 M262.661 79.200 C 264.372 80.702,266.078 80.765,268.086 79.400 C 270.378 77.842,287.082 78.986,288.980 80.831 C 289.189 81.034,289.786 81.200,290.306 81.200 C 292.415 81.200,296.908 84.237,296.282 85.240 C 295.928 85.808,295.937 86.097,296.323 86.483 C 296.727 86.887,296.872 86.811,297.060 86.093 C 297.292 85.204,298.540 84.856,298.974 85.559 C 299.096 85.756,299.872 86.271,300.698 86.703 C 304.293 88.584,313.362 97.551,313.741 99.600 C 313.884 100.370,314.467 101.540,315.039 102.200 C 316.272 103.626,317.600 106.114,317.600 107.000 C 317.600 107.348,317.960 108.120,318.401 108.716 C 318.841 109.312,319.400 110.880,319.642 112.200 C 319.885 113.520,320.325 115.500,320.620 116.600 C 321.797 120.985,321.807 129.207,320.638 130.918 C 319.165 133.072,319.223 135.213,320.800 136.863 L 322.000 138.119 322.000 199.770 L 322.000 261.422 320.800 262.475 C 319.302 263.790,319.055 266.956,320.364 268.077 C 321.413 268.974,321.824 273.145,321.247 277.024 C 321.001 278.679,320.800 280.688,320.800 281.488 C 320.800 282.288,320.634 283.496,320.431 284.172 C 320.228 284.847,319.858 286.540,319.609 287.932 C 318.983 291.428,315.872 297.232,315.061 296.421 C 314.434 295.794,313.200 295.913,313.200 296.600 C 313.200 296.930,313.491 297.200,313.847 297.200 C 314.567 297.200,314.499 297.757,313.400 300.841 C 312.692 302.829,307.302 308.673,303.182 311.920 C 301.014 313.628,300.984 313.638,298.552 313.379 L 296.104 313.118 295.837 314.542 C 295.576 315.936,293.911 317.600,292.777 317.600 C 292.502 317.600,291.180 318.115,289.839 318.744 C 287.274 319.947,285.382 320.343,277.160 321.398 C 271.674 322.103,270.455 321.982,268.527 320.547 C 266.712 319.197,264.726 319.281,263.164 320.774 L 261.935 321.948 241.868 321.985 C 230.830 322.005,221.203 321.901,220.473 321.755 C 217.882 321.236,218.032 323.885,217.982 277.991 L 217.935 236.200 218.994 235.403 C 220.121 234.553,237.020 234.220,241.043 234.968 C 242.371 235.215,242.734 235.150,242.933 234.631 C 243.156 234.049,241.957 233.999,229.966 234.095 L 216.754 234.200 216.788 277.809 C 216.815 312.607,216.719 321.558,216.311 322.114 C 215.837 322.760,214.527 322.803,198.000 322.705 L 180.200 322.600 180.000 278.400 L 179.800 234.200 165.311 234.095 C 153.774 234.011,150.861 234.093,151.015 234.495 C 151.166 234.890,153.763 234.973,162.904 234.876 C 175.803 234.739,177.679 234.879,178.863 236.063 C 179.816 237.016,179.806 318.120,178.853 319.901 C 177.658 322.133,178.735 322.027,157.829 321.981 L 138.539 321.938 137.436 320.769 C 135.996 319.243,133.926 319.179,132.000 320.600 C 130.359 321.810,128.275 321.882,120.800 320.983 C 112.252 319.956,108.900 319.145,106.280 317.469 C 105.115 316.723,102.820 315.456,101.181 314.652 C 96.093 312.157,88.400 304.868,86.489 300.731 C 86.014 299.704,85.436 298.746,85.203 298.602 C 84.748 298.321,82.400 293.357,82.400 292.676 C 82.400 292.449,82.155 291.979,81.857 291.631 C 79.368 288.739,77.636 273.005,79.409 269.400 C 80.778 266.616,80.716 264.723,79.203 263.140 L 78.006 261.888 78.013 200.254 L 78.019 138.619 79.210 137.532 C 80.726 136.148,80.881 133.519,79.547 131.824 C 78.368 130.324,78.393 120.767,79.589 116.000 C 79.782 115.230,80.149 113.520,80.405 112.200 C 80.660 110.880,81.511 108.540,82.296 107.000 C 84.222 103.221,84.301 103.131,85.224 103.708 C 85.811 104.074,86.092 104.068,86.483 103.677 C 86.887 103.273,86.811 103.128,86.093 102.940 C 85.069 102.672,84.913 101.536,85.800 100.800 C 86.130 100.526,86.401 100.009,86.401 99.651 C 86.404 98.539,87.786 96.730,91.328 93.200 C 97.592 86.958,98.788 86.206,101.848 86.589 C 103.947 86.851,104.000 86.833,104.000 85.860 C 104.000 84.682,106.116 82.400,107.207 82.400 C 107.617 82.400,108.048 82.246,108.164 82.058 C 109.043 80.636,120.687 78.432,127.444 78.408 C 129.400 78.402,130.182 78.600,131.362 79.400 C 133.416 80.794,135.266 80.727,136.863 79.200 L 138.119 78.000 199.707 78.000 L 261.294 78.000 262.661 79.200 M219.600 127.939 C 215.509 128.195,213.848 128.612,214.737 129.161 C 214.969 129.304,216.383 129.294,217.879 129.138 C 225.050 128.390,229.045 128.298,233.327 128.781 C 238.687 129.386,241.092 129.281,239.730 128.502 C 238.684 127.903,225.895 127.546,219.600 127.939 M206.400 130.163 C 200.486 132.660,196.906 134.548,195.858 135.721 C 194.235 137.539,195.390 137.635,197.875 135.888 C 200.557 134.002,206.688 131.309,210.343 130.410 C 212.024 129.996,212.950 129.643,212.400 129.625 C 211.850 129.606,210.770 129.511,210.000 129.412 C 209.092 129.296,207.827 129.560,206.400 130.163 M242.039 129.568 C 241.663 129.805,242.393 130.012,244.239 130.191 C 245.757 130.338,247.630 130.695,248.400 130.985 L 249.800 131.511 249.905 145.429 C 249.987 156.297,249.900 159.417,249.505 159.667 C 249.227 159.843,245.123 159.991,240.384 159.994 C 231.273 160.000,228.901 160.326,225.660 162.016 C 223.452 163.166,219.509 167.459,218.863 169.415 C 216.892 175.389,216.814 176.102,216.807 188.295 L 216.800 199.991 232.700 200.095 L 248.600 200.200 248.563 201.400 C 248.519 202.831,247.763 208.837,247.203 212.200 C 246.983 213.520,246.719 215.590,246.617 216.800 C 246.515 218.010,246.072 221.250,245.634 224.000 C 244.770 229.418,244.581 233.200,245.173 233.200 C 245.685 233.200,246.083 231.806,246.194 229.626 C 246.281 227.901,246.712 224.444,247.606 218.293 C 247.823 216.803,248.000 214.913,247.999 214.093 C 247.998 212.574,248.877 206.881,249.623 203.577 C 250.610 199.202,250.348 199.130,233.395 199.121 C 222.567 199.115,219.070 198.993,218.537 198.604 C 217.759 198.035,217.665 176.973,218.434 175.536 C 218.635 175.160,218.800 174.478,218.800 174.021 C 218.800 173.563,218.964 172.877,219.165 172.495 C 219.366 172.113,219.996 170.810,220.566 169.600 C 221.858 166.853,225.065 163.346,226.627 162.969 C 227.272 162.814,228.520 162.307,229.400 161.843 C 230.852 161.078,231.842 160.981,240.086 160.800 C 251.513 160.548,250.341 161.640,250.863 150.759 C 251.756 132.133,251.758 133.067,250.831 132.228 C 250.374 131.815,250.000 131.239,250.000 130.948 C 250.000 129.574,243.742 128.489,242.039 129.568 M193.290 137.884 C 192.790 137.980,192.074 138.540,191.699 139.129 C 191.324 139.718,190.069 141.185,188.909 142.388 C 187.749 143.592,186.800 144.814,186.800 145.104 C 186.800 145.394,186.170 146.567,185.400 147.710 C 184.630 148.854,184.000 150.000,184.000 150.257 C 184.000 150.515,183.469 151.910,182.819 153.357 C 182.170 154.805,181.516 156.667,181.367 157.495 C 181.218 158.323,180.937 159.201,180.744 159.446 C 179.791 160.653,179.426 166.514,179.375 181.400 C 179.347 189.980,179.199 197.387,179.047 197.860 C 178.631 199.158,177.793 199.230,163.716 199.183 L 150.679 199.140 149.708 200.110 L 148.737 201.081 148.715 215.191 C 148.702 222.952,148.527 230.036,148.326 230.933 C 147.982 232.462,148.790 233.937,150.000 233.991 C 150.110 233.996,150.200 226.395,150.200 217.100 L 150.200 200.200 165.100 200.095 L 180.000 199.990 180.003 184.695 C 180.006 165.445,180.816 159.761,184.624 152.268 C 184.941 151.645,185.200 150.988,185.200 150.808 C 185.200 149.447,190.682 141.987,193.793 139.116 C 195.340 137.688,195.265 137.505,193.290 137.884 M103.200 313.976 C 103.200 314.429,103.380 314.800,103.600 314.800 C 103.820 314.800,104.000 314.541,104.000 314.224 C 104.000 313.907,103.820 313.536,103.600 313.400 C 103.380 313.264,103.200 313.523,103.200 313.976 " stroke="none" fill="#3e8ccc" fill-rule="evenodd"></path></g></svg>